<?xml version="1.0" encoding="utf-8"?>
<!-- Generator: Adobe Illustrator 15.1.0, SVG Export Plug-In . SVG Version: 6.00 Build 0)  -->
<!DOCTYPE svg PUBLIC "-//W3C//DTD SVG 1.1//EN" "http://www.w3.org/Graphics/SVG/1.1/DTD/svg11.dtd">
<svg version="1.1" id="Layer_1" xmlns="http://www.w3.org/2000/svg" xmlns:xlink="http://www.w3.org/1999/xlink" x="0px" y="0px"
	 width="100px" height="100px" viewBox="0 0 100 100" enable-background="new 0 0 100 100" xml:space="preserve">
<g>
	<g>
		<path fill="none" stroke="#585859" stroke-miterlimit="10" d="M86.875,58.994c0,0.961-0.779,1.74-1.741,1.74H14.865
			c-0.961,0-1.74-0.779-1.74-1.74V41.006c0-0.961,0.779-1.74,1.74-1.74h70.269c0.962,0,1.741,0.779,1.741,1.74V58.994z"/>
		<rect x="38.031" y="42.209" fill="none" stroke="#585859" stroke-miterlimit="10" width="44.25" height="15.583"/>
		<g>
			<g>
				<line fill="none" stroke="#585859" stroke-width="3" stroke-miterlimit="10" x1="17.161" y1="43.25" x2="34.629" y2="43.25"/>
				<line fill="none" stroke="#585859" stroke-width="2" stroke-miterlimit="10" x1="17.161" y1="47.75" x2="34.629" y2="47.75"/>
				<line fill="none" stroke="#585859" stroke-width="2" stroke-miterlimit="10" x1="17.161" y1="52.25" x2="34.629" y2="52.25"/>
				<line fill="none" stroke="#585859" stroke-width="2" stroke-miterlimit="10" x1="17.161" y1="56.75" x2="34.629" y2="56.75"/>
			</g>
		</g>
		<rect x="43.791" y="45.79" fill="none" stroke="#585859" stroke-miterlimit="10" width="13.988" height="8.42"/>
		<rect x="62.533" y="45.79" fill="none" stroke="#585859" stroke-miterlimit="10" width="13.988" height="8.42"/>
	</g>
</g>
</svg>
