<?xml version="1.0" encoding="utf-8"?>
<!-- Generator: Adobe Illustrator 15.1.0, SVG Export Plug-In . SVG Version: 6.00 Build 0)  -->
<!DOCTYPE svg PUBLIC "-//W3C//DTD SVG 1.1//EN" "http://www.w3.org/Graphics/SVG/1.1/DTD/svg11.dtd">
<svg version="1.1" id="Layer_1" xmlns="http://www.w3.org/2000/svg" xmlns:xlink="http://www.w3.org/1999/xlink" x="0px" y="0px"
	 width="100px" height="100px" viewBox="0 0 100 100" enable-background="new 0 0 100 100" xml:space="preserve">
<g>
	<path fill="none" stroke="#585859" stroke-miterlimit="10" d="M67.375,86.994c0,0.961-0.779,1.74-1.741,1.74H34.365
		c-0.961,0-1.74-0.779-1.74-1.74V13.006c0-0.961,0.779-1.74,1.74-1.74h31.269c0.962,0,1.741,0.779,1.741,1.74V86.994z"/>
	<g>
		<g>
			<line fill="none" stroke="#585859" stroke-width="2" stroke-miterlimit="10" x1="36.892" y1="24.21" x2="63.109" y2="24.21"/>
			<line fill="none" stroke="#585859" stroke-width="2" stroke-miterlimit="10" x1="36.892" y1="28.71" x2="63.109" y2="28.71"/>
			<line fill="none" stroke="#585859" stroke-width="2" stroke-miterlimit="10" x1="36.892" y1="33.21" x2="63.109" y2="33.21"/>
			<line fill="none" stroke="#585859" stroke-width="2" stroke-miterlimit="10" x1="36.892" y1="37.71" x2="63.109" y2="37.71"/>
		</g>
	</g>
	<line fill="none" stroke="#585859" stroke-width="3" stroke-miterlimit="10" x1="36.892" y1="17.543" x2="63.109" y2="17.543"/>
	<rect x="37.333" y="41.986" fill="none" stroke="#585859" stroke-miterlimit="10" width="25.334" height="42.667"/>
	<g>
		<rect x="43.006" y="48.433" fill="none" stroke="#585859" stroke-miterlimit="10" width="13.988" height="11.056"/>
		<rect x="43.006" y="67.153" fill="none" stroke="#585859" stroke-miterlimit="10" width="13.988" height="11.055"/>
	</g>
</g>
</svg>
