<?xml version="1.0" encoding="utf-8"?>
<!-- Generator: Adobe Illustrator 15.1.0, SVG Export Plug-In . SVG Version: 6.00 Build 0)  -->
<!DOCTYPE svg PUBLIC "-//W3C//DTD SVG 1.1//EN" "http://www.w3.org/Graphics/SVG/1.1/DTD/svg11.dtd">
<svg version="1.1" id="Layer_1" xmlns="http://www.w3.org/2000/svg" xmlns:xlink="http://www.w3.org/1999/xlink" x="0px" y="0px"
	 width="100px" height="100px" viewBox="0 0 100 100" enable-background="new 0 0 100 100" xml:space="preserve">
<g>
	<path fill="none" stroke="#585859" stroke-miterlimit="10" d="M67.375,86.994c0,0.961-0.779,1.74-1.741,1.74H34.365
		c-0.961,0-1.74-0.779-1.74-1.74V13.006c0-0.961,0.779-1.74,1.74-1.74h31.269c0.962,0,1.741,0.779,1.741,1.74V86.994z"/>
	<g>
		<g>
			<line fill="none" stroke="#585859" stroke-width="3" stroke-miterlimit="10" x1="36.892" y1="16.236" x2="63.109" y2="16.236"/>
			<line fill="none" stroke="#585859" stroke-width="2" stroke-miterlimit="10" x1="36.892" y1="20.736" x2="63.109" y2="20.736"/>
			<line fill="none" stroke="#585859" stroke-width="2" stroke-miterlimit="10" x1="36.892" y1="25.236" x2="63.109" y2="25.236"/>
			<line fill="none" stroke="#585859" stroke-width="2" stroke-miterlimit="10" x1="36.892" y1="29.736" x2="63.109" y2="29.736"/>
		</g>
	</g>
	<g>
		<g>
			<path fill="#585859" d="M61.982,34.78l0.035,13.167h-24L37.982,34.78H61.982 M62.979,33.78h-26l0.041,15.167h26L62.979,33.78
				L62.979,33.78z"/>
		</g>
		<line fill="none" stroke="#585859" stroke-miterlimit="10" x1="37.897" y1="34.947" x2="62.647" y2="47.947"/>
		<line fill="none" stroke="#585859" stroke-miterlimit="10" x1="62.397" y1="34.697" x2="37.647" y2="47.947"/>
	</g>
	<rect x="37.333" y="51.653" fill="none" stroke="#585859" stroke-miterlimit="10" width="25.334" height="33"/>
	<g>
		<rect x="43.278" y="55.266" fill="none" stroke="#585859" stroke-miterlimit="10" width="13.988" height="11.056"/>
		<rect x="43.278" y="69.986" fill="none" stroke="#585859" stroke-miterlimit="10" width="13.988" height="11.055"/>
	</g>
</g>
</svg>
