<?xml version="1.0" encoding="utf-8"?>
<!-- Generator: Adobe Illustrator 15.1.0, SVG Export Plug-In . SVG Version: 6.00 Build 0)  -->
<!DOCTYPE svg PUBLIC "-//W3C//DTD SVG 1.1//EN" "http://www.w3.org/Graphics/SVG/1.1/DTD/svg11.dtd">
<svg version="1.1" id="Layer_1" xmlns="http://www.w3.org/2000/svg" xmlns:xlink="http://www.w3.org/1999/xlink" x="0px" y="0px"
	 width="100px" height="100px" viewBox="0 0 100 100" enable-background="new 0 0 100 100" xml:space="preserve">
<g>
	<path fill="none" stroke="#585859" stroke-miterlimit="10" d="M23.125,67.494c0,0.961,0.779,1.74,1.741,1.74h50.269
		c0.961,0,1.74-0.779,1.74-1.74V32.506c0-0.961-0.779-1.74-1.74-1.74H24.866c-0.962,0-1.741,0.779-1.741,1.74V67.494z"/>
	<g>
		<g>
			<line fill="none" stroke="#585859" stroke-width="3" stroke-miterlimit="10" x1="42.499" y1="36.75" x2="28.166" y2="36.75"/>
			<line fill="none" stroke="#585859" stroke-width="2" stroke-miterlimit="10" x1="42.499" y1="41.166" x2="28.166" y2="41.166"/>
			<line fill="none" stroke="#585859" stroke-width="2" stroke-miterlimit="10" x1="42.499" y1="45.584" x2="28.166" y2="45.584"/>
			<line fill="none" stroke="#585859" stroke-width="2" stroke-miterlimit="10" x1="42.499" y1="50" x2="28.166" y2="50"/>
			<line fill="none" stroke="#585859" stroke-width="2" stroke-miterlimit="10" x1="42.499" y1="54.417" x2="28.166" y2="54.417"/>
			<line fill="none" stroke="#585859" stroke-width="2" stroke-miterlimit="10" x1="42.499" y1="58.833" x2="28.166" y2="58.833"/>
			<line fill="none" stroke="#585859" stroke-width="2" stroke-miterlimit="10" x1="42.499" y1="63.25" x2="28.166" y2="63.25"/>
		</g>
	</g>
	<g>
		<line fill="none" stroke="#585859" stroke-miterlimit="10" x1="71.208" y1="36.352" x2="46.999" y2="63.583"/>
		<g>
			<g>
				<path fill="#585859" d="M71.04,36.416l-0.039,27.168h-24l0.038-27.168H71.04 M72.041,35.416h-26L46,64.584h26L72.041,35.416
					L72.041,35.416z"/>
			</g>
			<line fill="none" stroke="#585859" stroke-miterlimit="10" x1="46.833" y1="36.227" x2="71.208" y2="63.727"/>
		</g>
	</g>
</g>
</svg>
