<?xml version="1.0" encoding="utf-8"?>
<!-- Generator: Adobe Illustrator 15.1.0, SVG Export Plug-In . SVG Version: 6.00 Build 0)  -->
<!DOCTYPE svg PUBLIC "-//W3C//DTD SVG 1.1//EN" "http://www.w3.org/Graphics/SVG/1.1/DTD/svg11.dtd">
<svg version="1.1" id="Layer_1" xmlns="http://www.w3.org/2000/svg" xmlns:xlink="http://www.w3.org/1999/xlink" x="0px" y="0px"
	 width="100px" height="100px" viewBox="0 0 100 100" enable-background="new 0 0 100 100" xml:space="preserve">
<g>
	<g>
		<path fill="none" stroke="#585859" stroke-miterlimit="10" d="M86.875,58.994c0,0.961-0.779,1.74-1.741,1.74H14.865
			c-0.961,0-1.74-0.779-1.74-1.74V41.006c0-0.961,0.779-1.74,1.74-1.74h70.269c0.962,0,1.741,0.779,1.741,1.74V58.994z"/>
		<rect x="38.031" y="42.329" fill="none" stroke="#585859" stroke-miterlimit="10" width="44.25" height="15.583"/>
		<g>
			<path fill="#585859" d="M33.641,43.319l0.024,13.167h-15.68l-0.024-13.167H33.641 M34.639,42.319h-17.68l0.028,15.167h17.68
				L34.639,42.319L34.639,42.319z"/>
		</g>
		<line fill="none" stroke="#585859" stroke-miterlimit="10" x1="17.418" y1="42.986" x2="34.249" y2="56.486"/>
		<line fill="none" stroke="#585859" stroke-miterlimit="10" x1="34.417" y1="42.986" x2="17.25" y2="56.486"/>
		<rect x="43.464" y="45.91" fill="none" stroke="#585859" stroke-miterlimit="10" width="13.988" height="8.42"/>
		<rect x="62.206" y="45.91" fill="none" stroke="#585859" stroke-miterlimit="10" width="13.988" height="8.42"/>
	</g>
</g>
</svg>
