<?xml version="1.0" encoding="utf-8"?>
<!-- Generator: Adobe Illustrator 15.1.0, SVG Export Plug-In . SVG Version: 6.00 Build 0)  -->
<!DOCTYPE svg PUBLIC "-//W3C//DTD SVG 1.1//EN" "http://www.w3.org/Graphics/SVG/1.1/DTD/svg11.dtd">
<svg version="1.1" id="Layer_1" xmlns="http://www.w3.org/2000/svg" xmlns:xlink="http://www.w3.org/1999/xlink" x="0px" y="0px"
	 width="100px" height="100px" viewBox="0 0 100 100" enable-background="new 0 0 100 100" xml:space="preserve">
<g>
	<path fill="none" stroke="#585859" stroke-miterlimit="10" d="M67.375,86.994c0,0.961-0.779,1.74-1.741,1.74H34.365
		c-0.961,0-1.74-0.779-1.74-1.74V13.006c0-0.961,0.779-1.74,1.74-1.74h31.269c0.962,0,1.741,0.779,1.741,1.74V86.994z"/>
	<g>
		<g>
			<line fill="none" stroke="#585859" stroke-width="2" stroke-miterlimit="10" x1="36.892" y1="40.21" x2="63.109" y2="40.21"/>
			<line fill="none" stroke="#585859" stroke-width="2" stroke-miterlimit="10" x1="36.892" y1="44.71" x2="63.109" y2="44.71"/>
			<line fill="none" stroke="#585859" stroke-width="2" stroke-miterlimit="10" x1="36.892" y1="49.21" x2="63.109" y2="49.21"/>
			<line fill="none" stroke="#585859" stroke-width="2" stroke-miterlimit="10" x1="36.892" y1="53.71" x2="63.109" y2="53.71"/>
		</g>
	</g>
	<g>
		<g>
			<path fill="#585859" d="M61.982,22.319l0.035,13.167h-24l-0.035-13.167H61.982 M62.979,21.319h-26l0.041,15.167h26L62.979,21.319
				L62.979,21.319z"/>
		</g>
		<line fill="none" stroke="#585859" stroke-miterlimit="10" x1="37.897" y1="22.486" x2="62.647" y2="35.486"/>
		<line fill="none" stroke="#585859" stroke-miterlimit="10" x1="62.397" y1="22.236" x2="37.647" y2="35.486"/>
	</g>
	<line fill="none" stroke="#585859" stroke-width="3" stroke-miterlimit="10" x1="36.892" y1="16.543" x2="63.109" y2="16.543"/>
	<rect x="37.333" y="57.986" fill="none" stroke="#585859" stroke-miterlimit="10" width="25.334" height="26.667"/>
	<g>
		<rect x="43.006" y="62.421" fill="none" stroke="#585859" stroke-miterlimit="10" width="13.988" height="6.608"/>
		<rect x="43.006" y="73.611" fill="none" stroke="#585859" stroke-miterlimit="10" width="13.988" height="6.608"/>
	</g>
</g>
</svg>
