<?xml version="1.0" encoding="utf-8"?>
<!-- Generator: Adobe Illustrator 15.1.0, SVG Export Plug-In . SVG Version: 6.00 Build 0)  -->
<!DOCTYPE svg PUBLIC "-//W3C//DTD SVG 1.1//EN" "http://www.w3.org/Graphics/SVG/1.1/DTD/svg11.dtd">
<svg version="1.1" id="Layer_1" xmlns="http://www.w3.org/2000/svg" xmlns:xlink="http://www.w3.org/1999/xlink" x="0px" y="0px"
	 width="100px" height="100px" viewBox="0 0 100 100" enable-background="new 0 0 100 100" xml:space="preserve">
<g>
	<g>
		<g>
			<path fill="none" stroke="#585859" stroke-miterlimit="10" d="M76.875,86.994c0,0.961-0.779,1.74-1.741,1.74H24.865
				c-0.961,0-1.74-0.779-1.74-1.74V13.006c0-0.961,0.779-1.74,1.74-1.74h50.269c0.962,0,1.741,0.779,1.741,1.74V86.994z"/>
			<rect x="25.954" y="15.564" fill="none" stroke="#585859" stroke-miterlimit="10" width="48.092" height="11.098"/>
			<rect x="25.954" y="73.843" fill="none" stroke="#585859" stroke-miterlimit="10" width="48.092" height="11.098"/>
			<g>
				<line fill="none" stroke="#585859" stroke-miterlimit="10" x1="28.032" y1="31.79" x2="53.417" y2="31.79"/>
				<g>
					<line fill="none" stroke="#585859" stroke-width="2" stroke-miterlimit="10" x1="28.032" y1="37.31" x2="53.417" y2="37.31"/>
					<line fill="none" stroke="#585859" stroke-width="2" stroke-miterlimit="10" x1="28.032" y1="42.41" x2="53.417" y2="42.41"/>
					<line fill="none" stroke="#585859" stroke-width="2" stroke-miterlimit="10" x1="28.032" y1="47.51" x2="53.417" y2="47.51"/>
					<line fill="none" stroke="#585859" stroke-width="2" stroke-miterlimit="10" x1="28.032" y1="52.61" x2="53.417" y2="52.61"/>
					<line fill="none" stroke="#585859" stroke-width="2" stroke-miterlimit="10" x1="28.032" y1="57.71" x2="53.417" y2="57.71"/>
					<line fill="none" stroke="#585859" stroke-width="3" stroke-miterlimit="10" x1="28.032" y1="32.21" x2="53.417" y2="32.21"/>
				</g>
			</g>
			<g>
				<defs>
					<rect id="SVGID_1_" x="25.954" y="15.564" width="48.092" height="11.098"/>
				</defs>
				<clipPath id="SVGID_2_">
					<use xlink:href="#SVGID_1_"  overflow="visible"/>
				</clipPath>
				<g clip-path="url(#SVGID_2_)">
					
						<line fill="none" stroke="#585859" stroke-width="0.75" stroke-miterlimit="10" x1="19.691" y1="-6.347" x2="-57.225" y2="70.569"/>
					
						<line fill="none" stroke="#585859" stroke-width="0.75" stroke-miterlimit="10" x1="23.247" y1="-6.347" x2="-53.668" y2="70.569"/>
					
						<line fill="none" stroke="#585859" stroke-width="0.75" stroke-miterlimit="10" x1="26.803" y1="-6.347" x2="-50.113" y2="70.569"/>
					
						<line fill="none" stroke="#585859" stroke-width="0.75" stroke-miterlimit="10" x1="30.359" y1="-6.347" x2="-46.557" y2="70.569"/>
					
						<line fill="none" stroke="#585859" stroke-width="0.75" stroke-miterlimit="10" x1="33.914" y1="-6.347" x2="-43" y2="70.569"/>
					
						<line fill="none" stroke="#585859" stroke-width="0.75" stroke-miterlimit="10" x1="37.471" y1="-6.347" x2="-39.445" y2="70.569"/>
					
						<line fill="none" stroke="#585859" stroke-width="0.75" stroke-miterlimit="10" x1="41.027" y1="-6.347" x2="-35.889" y2="70.569"/>
					
						<line fill="none" stroke="#585859" stroke-width="0.75" stroke-miterlimit="10" x1="44.583" y1="-6.347" x2="-32.332" y2="70.569"/>
					
						<line fill="none" stroke="#585859" stroke-width="0.75" stroke-miterlimit="10" x1="48.139" y1="-6.347" x2="-28.776" y2="70.569"/>
					
						<line fill="none" stroke="#585859" stroke-width="0.75" stroke-miterlimit="10" x1="51.695" y1="-6.347" x2="-25.221" y2="70.569"/>
					
						<line fill="none" stroke="#585859" stroke-width="0.75" stroke-miterlimit="10" x1="55.339" y1="-6.347" x2="-21.577" y2="70.569"/>
					
						<line fill="none" stroke="#585859" stroke-width="0.75" stroke-miterlimit="10" x1="58.896" y1="-6.347" x2="-18.021" y2="70.569"/>
					
						<line fill="none" stroke="#585859" stroke-width="0.75" stroke-miterlimit="10" x1="62.45" y1="-6.347" x2="-14.466" y2="70.569"/>
					
						<line fill="none" stroke="#585859" stroke-width="0.75" stroke-miterlimit="10" x1="66.434" y1="-6.347" x2="-10.482" y2="70.569"/>
					
						<line fill="none" stroke="#585859" stroke-width="0.75" stroke-miterlimit="10" x1="69.989" y1="-6.347" x2="-6.926" y2="70.569"/>
					
						<line fill="none" stroke="#585859" stroke-width="0.75" stroke-miterlimit="10" x1="73.547" y1="-6.347" x2="-3.37" y2="70.569"/>
					
						<line fill="none" stroke="#585859" stroke-width="0.75" stroke-miterlimit="10" x1="77.101" y1="-6.347" x2="0.186" y2="70.569"/>
					
						<line fill="none" stroke="#585859" stroke-width="0.75" stroke-miterlimit="10" x1="80.659" y1="-6.347" x2="3.741" y2="70.569"/>
					
						<line fill="none" stroke="#585859" stroke-width="0.75" stroke-miterlimit="10" x1="84.214" y1="-6.347" x2="7.299" y2="70.569"/>
					
						<line fill="none" stroke="#585859" stroke-width="0.75" stroke-miterlimit="10" x1="87.771" y1="-6.347" x2="10.854" y2="70.569"/>
					
						<line fill="none" stroke="#585859" stroke-width="0.75" stroke-miterlimit="10" x1="91.326" y1="-6.347" x2="14.41" y2="70.569"/>
					
						<line fill="none" stroke="#585859" stroke-width="0.75" stroke-miterlimit="10" x1="94.882" y1="-6.347" x2="17.966" y2="70.569"/>
					
						<line fill="none" stroke="#585859" stroke-width="0.75" stroke-miterlimit="10" x1="98.438" y1="-6.347" x2="21.522" y2="70.569"/>
					
						<line fill="none" stroke="#585859" stroke-width="0.75" stroke-miterlimit="10" x1="101.995" y1="-6.347" x2="25.078" y2="70.569"/>
					
						<line fill="none" stroke="#585859" stroke-width="0.75" stroke-miterlimit="10" x1="105.55" y1="-6.347" x2="28.634" y2="70.569"/>
					
						<line fill="none" stroke="#585859" stroke-width="0.75" stroke-miterlimit="10" x1="109.106" y1="-6.347" x2="32.189" y2="70.569"/>
					
						<line fill="none" stroke="#585859" stroke-width="0.75" stroke-miterlimit="10" x1="112.663" y1="-6.347" x2="35.746" y2="70.569"/>
					
						<line fill="none" stroke="#585859" stroke-width="0.75" stroke-miterlimit="10" x1="116.22" y1="-6.347" x2="39.303" y2="70.569"/>
					
						<line fill="none" stroke="#585859" stroke-width="0.75" stroke-miterlimit="10" x1="119.773" y1="-6.347" x2="42.858" y2="70.569"/>
					
						<line fill="none" stroke="#585859" stroke-width="0.75" stroke-miterlimit="10" x1="123.331" y1="-6.347" x2="46.414" y2="70.569"/>
					
						<line fill="none" stroke="#585859" stroke-width="0.75" stroke-miterlimit="10" x1="126.887" y1="-6.347" x2="49.971" y2="70.569"/>
					
						<line fill="none" stroke="#585859" stroke-width="0.75" stroke-miterlimit="10" x1="130.442" y1="-6.347" x2="53.525" y2="70.569"/>
					
						<line fill="none" stroke="#585859" stroke-width="0.75" stroke-miterlimit="10" x1="133.998" y1="-6.347" x2="57.082" y2="70.569"/>
					
						<line fill="none" stroke="#585859" stroke-width="0.75" stroke-miterlimit="10" x1="137.555" y1="-6.347" x2="60.639" y2="70.569"/>
				</g>
			</g>
			<g>
				<defs>
					<rect id="SVGID_3_" x="25.954" y="74.23" width="48.092" height="11.099"/>
				</defs>
				<clipPath id="SVGID_4_">
					<use xlink:href="#SVGID_3_"  overflow="visible"/>
				</clipPath>
				<g clip-path="url(#SVGID_4_)">
					
						<line fill="none" stroke="#585859" stroke-width="0.75" stroke-miterlimit="10" x1="19.691" y1="52.32" x2="-57.225" y2="129.236"/>
					
						<line fill="none" stroke="#585859" stroke-width="0.75" stroke-miterlimit="10" x1="23.247" y1="52.32" x2="-53.668" y2="129.236"/>
					
						<line fill="none" stroke="#585859" stroke-width="0.75" stroke-miterlimit="10" x1="26.803" y1="52.32" x2="-50.113" y2="129.236"/>
					
						<line fill="none" stroke="#585859" stroke-width="0.75" stroke-miterlimit="10" x1="30.359" y1="52.32" x2="-46.557" y2="129.236"/>
					
						<line fill="none" stroke="#585859" stroke-width="0.75" stroke-miterlimit="10" x1="33.914" y1="52.32" x2="-43" y2="129.236"/>
					
						<line fill="none" stroke="#585859" stroke-width="0.75" stroke-miterlimit="10" x1="37.471" y1="52.32" x2="-39.445" y2="129.236"/>
					
						<line fill="none" stroke="#585859" stroke-width="0.75" stroke-miterlimit="10" x1="41.027" y1="52.32" x2="-35.889" y2="129.236"/>
					
						<line fill="none" stroke="#585859" stroke-width="0.75" stroke-miterlimit="10" x1="44.583" y1="52.32" x2="-32.332" y2="129.236"/>
					
						<line fill="none" stroke="#585859" stroke-width="0.75" stroke-miterlimit="10" x1="48.139" y1="52.32" x2="-28.776" y2="129.236"/>
					
						<line fill="none" stroke="#585859" stroke-width="0.75" stroke-miterlimit="10" x1="51.695" y1="52.32" x2="-25.221" y2="129.236"/>
					
						<line fill="none" stroke="#585859" stroke-width="0.75" stroke-miterlimit="10" x1="55.339" y1="52.32" x2="-21.577" y2="129.236"/>
					
						<line fill="none" stroke="#585859" stroke-width="0.75" stroke-miterlimit="10" x1="58.896" y1="52.32" x2="-18.021" y2="129.236"/>
					
						<line fill="none" stroke="#585859" stroke-width="0.75" stroke-miterlimit="10" x1="62.45" y1="52.32" x2="-14.466" y2="129.236"/>
					
						<line fill="none" stroke="#585859" stroke-width="0.75" stroke-miterlimit="10" x1="66.434" y1="52.32" x2="-10.482" y2="129.236"/>
					
						<line fill="none" stroke="#585859" stroke-width="0.75" stroke-miterlimit="10" x1="69.989" y1="52.32" x2="-6.926" y2="129.236"/>
					
						<line fill="none" stroke="#585859" stroke-width="0.75" stroke-miterlimit="10" x1="73.547" y1="52.32" x2="-3.37" y2="129.236"/>
					
						<line fill="none" stroke="#585859" stroke-width="0.75" stroke-miterlimit="10" x1="77.101" y1="52.32" x2="0.186" y2="129.236"/>
					
						<line fill="none" stroke="#585859" stroke-width="0.75" stroke-miterlimit="10" x1="80.659" y1="52.32" x2="3.741" y2="129.236"/>
					
						<line fill="none" stroke="#585859" stroke-width="0.75" stroke-miterlimit="10" x1="84.214" y1="52.32" x2="7.299" y2="129.236"/>
					
						<line fill="none" stroke="#585859" stroke-width="0.75" stroke-miterlimit="10" x1="87.771" y1="52.32" x2="10.854" y2="129.236"/>
					
						<line fill="none" stroke="#585859" stroke-width="0.75" stroke-miterlimit="10" x1="91.326" y1="52.32" x2="14.41" y2="129.236"/>
					
						<line fill="none" stroke="#585859" stroke-width="0.75" stroke-miterlimit="10" x1="94.882" y1="52.32" x2="17.966" y2="129.236"/>
					
						<line fill="none" stroke="#585859" stroke-width="0.75" stroke-miterlimit="10" x1="98.438" y1="52.32" x2="21.522" y2="129.236"/>
					
						<line fill="none" stroke="#585859" stroke-width="0.75" stroke-miterlimit="10" x1="101.995" y1="52.32" x2="25.078" y2="129.236"/>
					
						<line fill="none" stroke="#585859" stroke-width="0.75" stroke-miterlimit="10" x1="105.55" y1="52.32" x2="28.634" y2="129.236"/>
					
						<line fill="none" stroke="#585859" stroke-width="0.75" stroke-miterlimit="10" x1="109.106" y1="52.32" x2="32.189" y2="129.236"/>
					
						<line fill="none" stroke="#585859" stroke-width="0.75" stroke-miterlimit="10" x1="112.663" y1="52.32" x2="35.746" y2="129.236"/>
					
						<line fill="none" stroke="#585859" stroke-width="0.75" stroke-miterlimit="10" x1="116.22" y1="52.32" x2="39.303" y2="129.236"/>
					
						<line fill="none" stroke="#585859" stroke-width="0.75" stroke-miterlimit="10" x1="119.773" y1="52.32" x2="42.858" y2="129.236"/>
					
						<line fill="none" stroke="#585859" stroke-width="0.75" stroke-miterlimit="10" x1="123.331" y1="52.32" x2="46.414" y2="129.236"/>
					
						<line fill="none" stroke="#585859" stroke-width="0.75" stroke-miterlimit="10" x1="126.887" y1="52.32" x2="49.971" y2="129.236"/>
					
						<line fill="none" stroke="#585859" stroke-width="0.75" stroke-miterlimit="10" x1="130.442" y1="52.32" x2="53.525" y2="129.236"/>
					
						<line fill="none" stroke="#585859" stroke-width="0.75" stroke-miterlimit="10" x1="133.998" y1="52.32" x2="57.082" y2="129.236"/>
					
						<line fill="none" stroke="#585859" stroke-width="0.75" stroke-miterlimit="10" x1="137.555" y1="52.32" x2="60.639" y2="129.236"/>
				</g>
			</g>
			<g>
				<path fill="#585859" d="M52.979,62.153l0.019,5.928H28.73l-0.019-5.928H52.979 M53.976,61.153H27.709l0.024,7.928H54
					L53.976,61.153L53.976,61.153z"/>
			</g>
		</g>
		<rect x="57.615" y="31.496" fill="none" stroke="#585859" stroke-miterlimit="10" width="14.25" height="37.75"/>
		<rect x="42.316" y="63.638" fill="none" stroke="#585859" stroke-miterlimit="10" width="8.325" height="2.959"/>
		<rect x="31.066" y="63.638" fill="none" stroke="#585859" stroke-miterlimit="10" width="8.325" height="2.959"/>
	</g>
	<g>
		<defs>
			<rect id="SVGID_5_" x="57.115" y="31.996" width="14.25" height="37.75"/>
		</defs>
		<clipPath id="SVGID_6_">
			<use xlink:href="#SVGID_5_"  overflow="visible"/>
		</clipPath>
		<g clip-path="url(#SVGID_6_)">
			<g>
				
					<line fill="none" stroke="#585859" stroke-width="0.1" stroke-miterlimit="10" x1="41.272" y1="3.32" x2="-35.644" y2="80.236"/>
				
					<line fill="none" stroke="#585859" stroke-width="0.1" stroke-miterlimit="10" x1="44.828" y1="3.32" x2="-32.087" y2="80.236"/>
				
					<line fill="none" stroke="#585859" stroke-width="0.1" stroke-miterlimit="10" x1="48.384" y1="3.32" x2="-28.532" y2="80.236"/>
				<line fill="none" stroke="#585859" stroke-width="0.1" stroke-miterlimit="10" x1="51.94" y1="3.32" x2="-24.976" y2="80.236"/>
				
					<line fill="none" stroke="#585859" stroke-width="0.1" stroke-miterlimit="10" x1="55.495" y1="3.32" x2="-21.419" y2="80.236"/>
				
					<line fill="none" stroke="#585859" stroke-width="0.1" stroke-miterlimit="10" x1="59.052" y1="3.32" x2="-17.864" y2="80.236"/>
				
					<line fill="none" stroke="#585859" stroke-width="0.1" stroke-miterlimit="10" x1="62.608" y1="3.32" x2="-14.308" y2="80.236"/>
				
					<line fill="none" stroke="#585859" stroke-width="0.1" stroke-miterlimit="10" x1="66.164" y1="3.32" x2="-10.751" y2="80.236"/>
				<line fill="none" stroke="#585859" stroke-width="0.1" stroke-miterlimit="10" x1="69.72" y1="3.32" x2="-7.195" y2="80.236"/>
				<line fill="none" stroke="#585859" stroke-width="0.1" stroke-miterlimit="10" x1="73.276" y1="3.32" x2="-3.64" y2="80.236"/>
				<line fill="none" stroke="#585859" stroke-width="0.1" stroke-miterlimit="10" x1="76.92" y1="3.32" x2="0.004" y2="80.236"/>
				<line fill="none" stroke="#585859" stroke-width="0.1" stroke-miterlimit="10" x1="80.478" y1="3.32" x2="3.56" y2="80.236"/>
				<line fill="none" stroke="#585859" stroke-width="0.1" stroke-miterlimit="10" x1="84.031" y1="3.32" x2="7.115" y2="80.236"/>
				<line fill="none" stroke="#585859" stroke-width="0.1" stroke-miterlimit="10" x1="88.015" y1="3.32" x2="11.099" y2="80.236"/>
				<line fill="none" stroke="#585859" stroke-width="0.1" stroke-miterlimit="10" x1="91.57" y1="3.32" x2="14.655" y2="80.236"/>
				<line fill="none" stroke="#585859" stroke-width="0.1" stroke-miterlimit="10" x1="95.128" y1="3.32" x2="18.211" y2="80.236"/>
				<line fill="none" stroke="#585859" stroke-width="0.1" stroke-miterlimit="10" x1="98.682" y1="3.32" x2="21.767" y2="80.236"/>
				<line fill="none" stroke="#585859" stroke-width="0.1" stroke-miterlimit="10" x1="102.24" y1="3.32" x2="25.322" y2="80.236"/>
				<line fill="none" stroke="#585859" stroke-width="0.1" stroke-miterlimit="10" x1="105.795" y1="3.32" x2="28.88" y2="80.236"/>
				
					<line fill="none" stroke="#585859" stroke-width="0.1" stroke-miterlimit="10" x1="109.352" y1="3.32" x2="32.436" y2="80.236"/>
				
					<line fill="none" stroke="#585859" stroke-width="0.1" stroke-miterlimit="10" x1="112.907" y1="3.32" x2="35.991" y2="80.236"/>
				
					<line fill="none" stroke="#585859" stroke-width="0.1" stroke-miterlimit="10" x1="116.463" y1="3.32" x2="39.547" y2="80.236"/>
				
					<line fill="none" stroke="#585859" stroke-width="0.1" stroke-miterlimit="10" x1="120.019" y1="3.32" x2="43.104" y2="80.236"/>
				
					<line fill="none" stroke="#585859" stroke-width="0.1" stroke-miterlimit="10" x1="123.576" y1="3.32" x2="46.659" y2="80.236"/>
				
					<line fill="none" stroke="#585859" stroke-width="0.1" stroke-miterlimit="10" x1="127.131" y1="3.32" x2="50.215" y2="80.236"/>
				
					<line fill="none" stroke="#585859" stroke-width="0.1" stroke-miterlimit="10" x1="130.688" y1="3.32" x2="53.771" y2="80.236"/>
				
					<line fill="none" stroke="#585859" stroke-width="0.1" stroke-miterlimit="10" x1="134.244" y1="3.32" x2="57.327" y2="80.236"/>
				
					<line fill="none" stroke="#585859" stroke-width="0.1" stroke-miterlimit="10" x1="137.801" y1="3.32" x2="60.884" y2="80.236"/>
				
					<line fill="none" stroke="#585859" stroke-width="0.1" stroke-miterlimit="10" x1="141.354" y1="3.32" x2="64.439" y2="80.236"/>
				
					<line fill="none" stroke="#585859" stroke-width="0.1" stroke-miterlimit="10" x1="144.912" y1="3.32" x2="67.995" y2="80.236"/>
				
					<line fill="none" stroke="#585859" stroke-width="0.1" stroke-miterlimit="10" x1="148.468" y1="3.32" x2="71.552" y2="80.236"/>
				
					<line fill="none" stroke="#585859" stroke-width="0.1" stroke-miterlimit="10" x1="152.023" y1="3.32" x2="75.106" y2="80.236"/>
				
					<line fill="none" stroke="#585859" stroke-width="0.1" stroke-miterlimit="10" x1="155.579" y1="3.32" x2="78.663" y2="80.236"/>
				<line fill="none" stroke="#585859" stroke-width="0.1" stroke-miterlimit="10" x1="159.136" y1="3.32" x2="82.22" y2="80.236"/>
			</g>
			<g>
				
					<line fill="none" stroke="#585859" stroke-width="0.1" stroke-miterlimit="10" x1="100.204" y1="21.305" x2="23.288" y2="-55.611"/>
				
					<line fill="none" stroke="#585859" stroke-width="0.1" stroke-miterlimit="10" x1="100.204" y1="24.86" x2="23.288" y2="-52.055"/>
				
					<line fill="none" stroke="#585859" stroke-width="0.1" stroke-miterlimit="10" x1="100.204" y1="28.416" x2="23.288" y2="-48.5"/>
				
					<line fill="none" stroke="#585859" stroke-width="0.1" stroke-miterlimit="10" x1="100.204" y1="31.973" x2="23.288" y2="-44.943"/>
				
					<line fill="none" stroke="#585859" stroke-width="0.1" stroke-miterlimit="10" x1="100.204" y1="35.527" x2="23.288" y2="-41.387"/>
				
					<line fill="none" stroke="#585859" stroke-width="0.1" stroke-miterlimit="10" x1="100.204" y1="39.084" x2="23.288" y2="-37.832"/>
				
					<line fill="none" stroke="#585859" stroke-width="0.1" stroke-miterlimit="10" x1="100.204" y1="42.641" x2="23.288" y2="-34.275"/>
				
					<line fill="none" stroke="#585859" stroke-width="0.1" stroke-miterlimit="10" x1="100.204" y1="46.196" x2="23.288" y2="-30.719"/>
				
					<line fill="none" stroke="#585859" stroke-width="0.1" stroke-miterlimit="10" x1="100.204" y1="49.752" x2="23.288" y2="-27.163"/>
				
					<line fill="none" stroke="#585859" stroke-width="0.1" stroke-miterlimit="10" x1="100.204" y1="53.309" x2="23.288" y2="-23.607"/>
				
					<line fill="none" stroke="#585859" stroke-width="0.1" stroke-miterlimit="10" x1="100.204" y1="56.952" x2="23.288" y2="-19.964"/>
				
					<line fill="none" stroke="#585859" stroke-width="0.1" stroke-miterlimit="10" x1="100.204" y1="60.51" x2="23.288" y2="-16.408"/>
				
					<line fill="none" stroke="#585859" stroke-width="0.1" stroke-miterlimit="10" x1="100.204" y1="64.063" x2="23.288" y2="-12.853"/>
				
					<line fill="none" stroke="#585859" stroke-width="0.1" stroke-miterlimit="10" x1="100.204" y1="68.047" x2="23.288" y2="-8.869"/>
				
					<line fill="none" stroke="#585859" stroke-width="0.1" stroke-miterlimit="10" x1="100.204" y1="71.603" x2="23.288" y2="-5.312"/>
				
					<line fill="none" stroke="#585859" stroke-width="0.1" stroke-miterlimit="10" x1="100.204" y1="75.16" x2="23.288" y2="-1.757"/>
				
					<line fill="none" stroke="#585859" stroke-width="0.1" stroke-miterlimit="10" x1="100.204" y1="78.714" x2="23.288" y2="1.799"/>
				
					<line fill="none" stroke="#585859" stroke-width="0.1" stroke-miterlimit="10" x1="100.204" y1="82.272" x2="23.288" y2="5.354"/>
				
					<line fill="none" stroke="#585859" stroke-width="0.1" stroke-miterlimit="10" x1="100.204" y1="85.827" x2="23.288" y2="8.912"/>
				
					<line fill="none" stroke="#585859" stroke-width="0.1" stroke-miterlimit="10" x1="100.204" y1="89.384" x2="23.288" y2="12.468"/>
				
					<line fill="none" stroke="#585859" stroke-width="0.1" stroke-miterlimit="10" x1="100.204" y1="92.939" x2="23.288" y2="16.023"/>
				
					<line fill="none" stroke="#585859" stroke-width="0.1" stroke-miterlimit="10" x1="100.204" y1="96.495" x2="23.288" y2="19.579"/>
				
					<line fill="none" stroke="#585859" stroke-width="0.1" stroke-miterlimit="10" x1="100.204" y1="100.051" x2="23.288" y2="23.136"/>
				
					<line fill="none" stroke="#585859" stroke-width="0.1" stroke-miterlimit="10" x1="100.204" y1="103.608" x2="23.288" y2="26.691"/>
				
					<line fill="none" stroke="#585859" stroke-width="0.1" stroke-miterlimit="10" x1="100.204" y1="107.163" x2="23.288" y2="30.247"/>
				
					<line fill="none" stroke="#585859" stroke-width="0.1" stroke-miterlimit="10" x1="100.204" y1="110.72" x2="23.288" y2="33.803"/>
				
					<line fill="none" stroke="#585859" stroke-width="0.1" stroke-miterlimit="10" x1="100.204" y1="114.276" x2="23.288" y2="37.359"/>
				
					<line fill="none" stroke="#585859" stroke-width="0.1" stroke-miterlimit="10" x1="100.204" y1="117.833" x2="23.288" y2="40.916"/>
				
					<line fill="none" stroke="#585859" stroke-width="0.1" stroke-miterlimit="10" x1="100.204" y1="121.387" x2="23.288" y2="44.472"/>
				
					<line fill="none" stroke="#585859" stroke-width="0.1" stroke-miterlimit="10" x1="100.204" y1="124.944" x2="23.288" y2="48.027"/>
				
					<line fill="none" stroke="#585859" stroke-width="0.1" stroke-miterlimit="10" x1="100.204" y1="128.5" x2="23.288" y2="51.584"/>
				
					<line fill="none" stroke="#585859" stroke-width="0.1" stroke-miterlimit="10" x1="100.204" y1="132.056" x2="23.288" y2="55.139"/>
				
					<line fill="none" stroke="#585859" stroke-width="0.1" stroke-miterlimit="10" x1="100.204" y1="135.611" x2="23.288" y2="58.695"/>
				
					<line fill="none" stroke="#585859" stroke-width="0.1" stroke-miterlimit="10" x1="100.204" y1="139.168" x2="23.288" y2="62.252"/>
			</g>
		</g>
	</g>
</g>
</svg>
