<?xml version="1.0" encoding="utf-8"?>
<!-- Generator: Adobe Illustrator 15.1.0, SVG Export Plug-In . SVG Version: 6.00 Build 0)  -->
<!DOCTYPE svg PUBLIC "-//W3C//DTD SVG 1.1//EN" "http://www.w3.org/Graphics/SVG/1.1/DTD/svg11.dtd">
<svg version="1.1" id="Layer_1" xmlns="http://www.w3.org/2000/svg" xmlns:xlink="http://www.w3.org/1999/xlink" x="0px" y="0px"
	 width="100px" height="100px" viewBox="0 0 100 100" enable-background="new 0 0 100 100" xml:space="preserve">
<g>
	<g>
		<path fill="none" stroke="#585859" stroke-miterlimit="10" d="M76.875,86.994c0,0.961-0.779,1.74-1.741,1.74H24.865
			c-0.961,0-1.74-0.779-1.74-1.74V13.006c0-0.961,0.779-1.74,1.74-1.74h50.269c0.962,0,1.741,0.779,1.741,1.74V86.994z"/>
		<g>
			<g>
				<line fill="none" stroke="#585859" stroke-width="3" stroke-miterlimit="10" x1="28.032" y1="50.21" x2="54.25" y2="50.21"/>
				<line fill="none" stroke="#585859" stroke-width="2" stroke-miterlimit="10" x1="28.032" y1="54.71" x2="54.25" y2="54.71"/>
				<line fill="none" stroke="#585859" stroke-width="2" stroke-miterlimit="10" x1="28.032" y1="59.21" x2="54.25" y2="59.21"/>
				<line fill="none" stroke="#585859" stroke-width="2" stroke-miterlimit="10" x1="28.032" y1="63.71" x2="54.25" y2="63.71"/>
				<line fill="none" stroke="#585859" stroke-width="2" stroke-miterlimit="10" x1="28.032" y1="68.21" x2="54.25" y2="68.21"/>
			</g>
		</g>
		<rect x="26.204" y="15.564" fill="none" stroke="#585859" stroke-miterlimit="10" width="48.092" height="11.098"/>
		<rect x="26.204" y="73.843" fill="none" stroke="#585859" stroke-miterlimit="10" width="48.092" height="11.098"/>
		<g>
			<defs>
				<rect id="SVGID_1_" x="26.204" y="15.564" width="48.092" height="11.098"/>
			</defs>
			<clipPath id="SVGID_2_">
				<use xlink:href="#SVGID_1_"  overflow="visible"/>
			</clipPath>
			<g clip-path="url(#SVGID_2_)">
				
					<line fill="none" stroke="#585859" stroke-width="0.75" stroke-miterlimit="10" x1="19.941" y1="-6.347" x2="-56.975" y2="70.569"/>
				
					<line fill="none" stroke="#585859" stroke-width="0.75" stroke-miterlimit="10" x1="23.497" y1="-6.347" x2="-53.418" y2="70.569"/>
				
					<line fill="none" stroke="#585859" stroke-width="0.75" stroke-miterlimit="10" x1="27.053" y1="-6.347" x2="-49.863" y2="70.569"/>
				
					<line fill="none" stroke="#585859" stroke-width="0.75" stroke-miterlimit="10" x1="30.609" y1="-6.347" x2="-46.307" y2="70.569"/>
				
					<line fill="none" stroke="#585859" stroke-width="0.75" stroke-miterlimit="10" x1="34.164" y1="-6.347" x2="-42.75" y2="70.569"/>
				
					<line fill="none" stroke="#585859" stroke-width="0.75" stroke-miterlimit="10" x1="37.721" y1="-6.347" x2="-39.195" y2="70.569"/>
				
					<line fill="none" stroke="#585859" stroke-width="0.75" stroke-miterlimit="10" x1="41.277" y1="-6.347" x2="-35.639" y2="70.569"/>
				
					<line fill="none" stroke="#585859" stroke-width="0.75" stroke-miterlimit="10" x1="44.833" y1="-6.347" x2="-32.082" y2="70.569"/>
				
					<line fill="none" stroke="#585859" stroke-width="0.75" stroke-miterlimit="10" x1="48.389" y1="-6.347" x2="-28.526" y2="70.569"/>
				
					<line fill="none" stroke="#585859" stroke-width="0.75" stroke-miterlimit="10" x1="51.945" y1="-6.347" x2="-24.971" y2="70.569"/>
				
					<line fill="none" stroke="#585859" stroke-width="0.75" stroke-miterlimit="10" x1="55.589" y1="-6.347" x2="-21.327" y2="70.569"/>
				
					<line fill="none" stroke="#585859" stroke-width="0.75" stroke-miterlimit="10" x1="59.146" y1="-6.347" x2="-17.771" y2="70.569"/>
				
					<line fill="none" stroke="#585859" stroke-width="0.75" stroke-miterlimit="10" x1="62.7" y1="-6.347" x2="-14.216" y2="70.569"/>
				
					<line fill="none" stroke="#585859" stroke-width="0.75" stroke-miterlimit="10" x1="66.684" y1="-6.347" x2="-10.232" y2="70.569"/>
				
					<line fill="none" stroke="#585859" stroke-width="0.75" stroke-miterlimit="10" x1="70.239" y1="-6.347" x2="-6.676" y2="70.569"/>
				
					<line fill="none" stroke="#585859" stroke-width="0.75" stroke-miterlimit="10" x1="73.797" y1="-6.347" x2="-3.12" y2="70.569"/>
				
					<line fill="none" stroke="#585859" stroke-width="0.75" stroke-miterlimit="10" x1="77.351" y1="-6.347" x2="0.436" y2="70.569"/>
				
					<line fill="none" stroke="#585859" stroke-width="0.75" stroke-miterlimit="10" x1="80.909" y1="-6.347" x2="3.991" y2="70.569"/>
				
					<line fill="none" stroke="#585859" stroke-width="0.75" stroke-miterlimit="10" x1="84.464" y1="-6.347" x2="7.549" y2="70.569"/>
				
					<line fill="none" stroke="#585859" stroke-width="0.75" stroke-miterlimit="10" x1="88.021" y1="-6.347" x2="11.104" y2="70.569"/>
				
					<line fill="none" stroke="#585859" stroke-width="0.75" stroke-miterlimit="10" x1="91.576" y1="-6.347" x2="14.66" y2="70.569"/>
				
					<line fill="none" stroke="#585859" stroke-width="0.75" stroke-miterlimit="10" x1="95.132" y1="-6.347" x2="18.216" y2="70.569"/>
				
					<line fill="none" stroke="#585859" stroke-width="0.75" stroke-miterlimit="10" x1="98.688" y1="-6.347" x2="21.772" y2="70.569"/>
				
					<line fill="none" stroke="#585859" stroke-width="0.75" stroke-miterlimit="10" x1="102.245" y1="-6.347" x2="25.328" y2="70.569"/>
				
					<line fill="none" stroke="#585859" stroke-width="0.75" stroke-miterlimit="10" x1="105.8" y1="-6.347" x2="28.884" y2="70.569"/>
				
					<line fill="none" stroke="#585859" stroke-width="0.75" stroke-miterlimit="10" x1="109.356" y1="-6.347" x2="32.439" y2="70.569"/>
				
					<line fill="none" stroke="#585859" stroke-width="0.75" stroke-miterlimit="10" x1="112.913" y1="-6.347" x2="35.996" y2="70.569"/>
				
					<line fill="none" stroke="#585859" stroke-width="0.75" stroke-miterlimit="10" x1="116.47" y1="-6.347" x2="39.553" y2="70.569"/>
				
					<line fill="none" stroke="#585859" stroke-width="0.75" stroke-miterlimit="10" x1="120.023" y1="-6.347" x2="43.108" y2="70.569"/>
				
					<line fill="none" stroke="#585859" stroke-width="0.75" stroke-miterlimit="10" x1="123.581" y1="-6.347" x2="46.664" y2="70.569"/>
				
					<line fill="none" stroke="#585859" stroke-width="0.75" stroke-miterlimit="10" x1="127.137" y1="-6.347" x2="50.221" y2="70.569"/>
				
					<line fill="none" stroke="#585859" stroke-width="0.75" stroke-miterlimit="10" x1="130.692" y1="-6.347" x2="53.775" y2="70.569"/>
				
					<line fill="none" stroke="#585859" stroke-width="0.75" stroke-miterlimit="10" x1="134.248" y1="-6.347" x2="57.332" y2="70.569"/>
				
					<line fill="none" stroke="#585859" stroke-width="0.75" stroke-miterlimit="10" x1="137.805" y1="-6.347" x2="60.889" y2="70.569"/>
			</g>
		</g>
		<g>
			<defs>
				<rect id="SVGID_3_" x="26.204" y="74.23" width="48.092" height="11.099"/>
			</defs>
			<clipPath id="SVGID_4_">
				<use xlink:href="#SVGID_3_"  overflow="visible"/>
			</clipPath>
			<g clip-path="url(#SVGID_4_)">
				
					<line fill="none" stroke="#585859" stroke-width="0.75" stroke-miterlimit="10" x1="19.941" y1="52.32" x2="-56.975" y2="129.236"/>
				
					<line fill="none" stroke="#585859" stroke-width="0.75" stroke-miterlimit="10" x1="23.497" y1="52.32" x2="-53.418" y2="129.236"/>
				
					<line fill="none" stroke="#585859" stroke-width="0.75" stroke-miterlimit="10" x1="27.053" y1="52.32" x2="-49.863" y2="129.236"/>
				
					<line fill="none" stroke="#585859" stroke-width="0.75" stroke-miterlimit="10" x1="30.609" y1="52.32" x2="-46.307" y2="129.236"/>
				
					<line fill="none" stroke="#585859" stroke-width="0.75" stroke-miterlimit="10" x1="34.164" y1="52.32" x2="-42.75" y2="129.236"/>
				
					<line fill="none" stroke="#585859" stroke-width="0.75" stroke-miterlimit="10" x1="37.721" y1="52.32" x2="-39.195" y2="129.236"/>
				
					<line fill="none" stroke="#585859" stroke-width="0.75" stroke-miterlimit="10" x1="41.277" y1="52.32" x2="-35.639" y2="129.236"/>
				
					<line fill="none" stroke="#585859" stroke-width="0.75" stroke-miterlimit="10" x1="44.833" y1="52.32" x2="-32.082" y2="129.236"/>
				
					<line fill="none" stroke="#585859" stroke-width="0.75" stroke-miterlimit="10" x1="48.389" y1="52.32" x2="-28.526" y2="129.236"/>
				
					<line fill="none" stroke="#585859" stroke-width="0.75" stroke-miterlimit="10" x1="51.945" y1="52.32" x2="-24.971" y2="129.236"/>
				
					<line fill="none" stroke="#585859" stroke-width="0.75" stroke-miterlimit="10" x1="55.589" y1="52.32" x2="-21.327" y2="129.236"/>
				
					<line fill="none" stroke="#585859" stroke-width="0.75" stroke-miterlimit="10" x1="59.146" y1="52.32" x2="-17.771" y2="129.236"/>
				
					<line fill="none" stroke="#585859" stroke-width="0.75" stroke-miterlimit="10" x1="62.7" y1="52.32" x2="-14.216" y2="129.236"/>
				
					<line fill="none" stroke="#585859" stroke-width="0.75" stroke-miterlimit="10" x1="66.684" y1="52.32" x2="-10.232" y2="129.236"/>
				
					<line fill="none" stroke="#585859" stroke-width="0.75" stroke-miterlimit="10" x1="70.239" y1="52.32" x2="-6.676" y2="129.236"/>
				
					<line fill="none" stroke="#585859" stroke-width="0.75" stroke-miterlimit="10" x1="73.797" y1="52.32" x2="-3.12" y2="129.236"/>
				
					<line fill="none" stroke="#585859" stroke-width="0.75" stroke-miterlimit="10" x1="77.351" y1="52.32" x2="0.436" y2="129.236"/>
				
					<line fill="none" stroke="#585859" stroke-width="0.75" stroke-miterlimit="10" x1="80.909" y1="52.32" x2="3.991" y2="129.236"/>
				
					<line fill="none" stroke="#585859" stroke-width="0.75" stroke-miterlimit="10" x1="84.464" y1="52.32" x2="7.549" y2="129.236"/>
				
					<line fill="none" stroke="#585859" stroke-width="0.75" stroke-miterlimit="10" x1="88.021" y1="52.32" x2="11.104" y2="129.236"/>
				
					<line fill="none" stroke="#585859" stroke-width="0.75" stroke-miterlimit="10" x1="91.576" y1="52.32" x2="14.66" y2="129.236"/>
				
					<line fill="none" stroke="#585859" stroke-width="0.75" stroke-miterlimit="10" x1="95.132" y1="52.32" x2="18.216" y2="129.236"/>
				
					<line fill="none" stroke="#585859" stroke-width="0.75" stroke-miterlimit="10" x1="98.688" y1="52.32" x2="21.772" y2="129.236"/>
				
					<line fill="none" stroke="#585859" stroke-width="0.75" stroke-miterlimit="10" x1="102.245" y1="52.32" x2="25.328" y2="129.236"/>
				
					<line fill="none" stroke="#585859" stroke-width="0.75" stroke-miterlimit="10" x1="105.8" y1="52.32" x2="28.884" y2="129.236"/>
				
					<line fill="none" stroke="#585859" stroke-width="0.75" stroke-miterlimit="10" x1="109.356" y1="52.32" x2="32.439" y2="129.236"/>
				
					<line fill="none" stroke="#585859" stroke-width="0.75" stroke-miterlimit="10" x1="112.913" y1="52.32" x2="35.996" y2="129.236"/>
				
					<line fill="none" stroke="#585859" stroke-width="0.75" stroke-miterlimit="10" x1="116.47" y1="52.32" x2="39.553" y2="129.236"/>
				
					<line fill="none" stroke="#585859" stroke-width="0.75" stroke-miterlimit="10" x1="120.023" y1="52.32" x2="43.108" y2="129.236"/>
				
					<line fill="none" stroke="#585859" stroke-width="0.75" stroke-miterlimit="10" x1="123.581" y1="52.32" x2="46.664" y2="129.236"/>
				
					<line fill="none" stroke="#585859" stroke-width="0.75" stroke-miterlimit="10" x1="127.137" y1="52.32" x2="50.221" y2="129.236"/>
				
					<line fill="none" stroke="#585859" stroke-width="0.75" stroke-miterlimit="10" x1="130.692" y1="52.32" x2="53.775" y2="129.236"/>
				
					<line fill="none" stroke="#585859" stroke-width="0.75" stroke-miterlimit="10" x1="134.248" y1="52.32" x2="57.332" y2="129.236"/>
				
					<line fill="none" stroke="#585859" stroke-width="0.75" stroke-miterlimit="10" x1="137.805" y1="52.32" x2="60.889" y2="129.236"/>
			</g>
		</g>
		<rect x="58.031" y="31.329" fill="none" stroke="#585859" stroke-miterlimit="10" width="14.25" height="37.75"/>
		<g>
			<path fill="#585859" d="M52.962,32.319l0.035,13.167h-24l-0.035-13.167H52.962 M53.959,31.319h-26L28,46.486h26L53.959,31.319
				L53.959,31.319z"/>
		</g>
		<line fill="none" stroke="#585859" stroke-miterlimit="10" x1="28.5" y1="31.986" x2="53.5" y2="45.486"/>
		<line fill="none" stroke="#585859" stroke-miterlimit="10" x1="53.75" y1="31.986" x2="28.25" y2="45.486"/>
	</g>
	<g>
		<defs>
			<rect id="SVGID_5_" x="58.031" y="31.329" width="14.25" height="37.75"/>
		</defs>
		<clipPath id="SVGID_6_">
			<use xlink:href="#SVGID_5_"  overflow="visible"/>
		</clipPath>
		<g clip-path="url(#SVGID_6_)">
			<g>
				
					<line fill="none" stroke="#585859" stroke-width="0.1" stroke-miterlimit="10" x1="67.941" y1="2.653" x2="-8.975" y2="79.569"/>
				
					<line fill="none" stroke="#585859" stroke-width="0.1" stroke-miterlimit="10" x1="71.497" y1="2.653" x2="-5.418" y2="79.569"/>
				
					<line fill="none" stroke="#585859" stroke-width="0.1" stroke-miterlimit="10" x1="75.053" y1="2.653" x2="-1.863" y2="79.569"/>
				<line fill="none" stroke="#585859" stroke-width="0.1" stroke-miterlimit="10" x1="78.609" y1="2.653" x2="1.693" y2="79.569"/>
				<line fill="none" stroke="#585859" stroke-width="0.1" stroke-miterlimit="10" x1="82.164" y1="2.653" x2="5.25" y2="79.569"/>
				<line fill="none" stroke="#585859" stroke-width="0.1" stroke-miterlimit="10" x1="85.721" y1="2.653" x2="8.805" y2="79.569"/>
				
					<line fill="none" stroke="#585859" stroke-width="0.1" stroke-miterlimit="10" x1="89.277" y1="2.653" x2="12.361" y2="79.569"/>
				
					<line fill="none" stroke="#585859" stroke-width="0.1" stroke-miterlimit="10" x1="92.833" y1="2.653" x2="15.918" y2="79.569"/>
				
					<line fill="none" stroke="#585859" stroke-width="0.1" stroke-miterlimit="10" x1="96.389" y1="2.653" x2="19.474" y2="79.569"/>
				
					<line fill="none" stroke="#585859" stroke-width="0.1" stroke-miterlimit="10" x1="99.945" y1="2.653" x2="23.029" y2="79.569"/>
				
					<line fill="none" stroke="#585859" stroke-width="0.1" stroke-miterlimit="10" x1="103.589" y1="2.653" x2="26.673" y2="79.569"/>
				
					<line fill="none" stroke="#585859" stroke-width="0.1" stroke-miterlimit="10" x1="107.146" y1="2.653" x2="30.229" y2="79.569"/>
				<line fill="none" stroke="#585859" stroke-width="0.1" stroke-miterlimit="10" x1="110.7" y1="2.653" x2="33.784" y2="79.569"/>
				
					<line fill="none" stroke="#585859" stroke-width="0.1" stroke-miterlimit="10" x1="114.684" y1="2.653" x2="37.768" y2="79.569"/>
				
					<line fill="none" stroke="#585859" stroke-width="0.1" stroke-miterlimit="10" x1="118.239" y1="2.653" x2="41.324" y2="79.569"/>
				
					<line fill="none" stroke="#585859" stroke-width="0.1" stroke-miterlimit="10" x1="121.797" y1="2.653" x2="44.88" y2="79.569"/>
				
					<line fill="none" stroke="#585859" stroke-width="0.1" stroke-miterlimit="10" x1="125.351" y1="2.653" x2="48.436" y2="79.569"/>
				
					<line fill="none" stroke="#585859" stroke-width="0.1" stroke-miterlimit="10" x1="128.909" y1="2.653" x2="51.991" y2="79.569"/>
				
					<line fill="none" stroke="#585859" stroke-width="0.1" stroke-miterlimit="10" x1="132.464" y1="2.653" x2="55.549" y2="79.569"/>
				
					<line fill="none" stroke="#585859" stroke-width="0.1" stroke-miterlimit="10" x1="136.021" y1="2.653" x2="59.104" y2="79.569"/>
				
					<line fill="none" stroke="#585859" stroke-width="0.1" stroke-miterlimit="10" x1="139.576" y1="2.653" x2="62.66" y2="79.569"/>
				
					<line fill="none" stroke="#585859" stroke-width="0.1" stroke-miterlimit="10" x1="143.132" y1="2.653" x2="66.216" y2="79.569"/>
				
					<line fill="none" stroke="#585859" stroke-width="0.1" stroke-miterlimit="10" x1="146.688" y1="2.653" x2="69.772" y2="79.569"/>
				
					<line fill="none" stroke="#585859" stroke-width="0.1" stroke-miterlimit="10" x1="150.245" y1="2.653" x2="73.328" y2="79.569"/>
				<line fill="none" stroke="#585859" stroke-width="0.1" stroke-miterlimit="10" x1="153.8" y1="2.653" x2="76.884" y2="79.569"/>
				
					<line fill="none" stroke="#585859" stroke-width="0.1" stroke-miterlimit="10" x1="157.356" y1="2.653" x2="80.439" y2="79.569"/>
				
					<line fill="none" stroke="#585859" stroke-width="0.1" stroke-miterlimit="10" x1="160.913" y1="2.653" x2="83.996" y2="79.569"/>
				
					<line fill="none" stroke="#585859" stroke-width="0.1" stroke-miterlimit="10" x1="164.47" y1="2.653" x2="87.553" y2="79.569"/>
				
					<line fill="none" stroke="#585859" stroke-width="0.1" stroke-miterlimit="10" x1="168.023" y1="2.653" x2="91.108" y2="79.569"/>
				
					<line fill="none" stroke="#585859" stroke-width="0.1" stroke-miterlimit="10" x1="171.581" y1="2.653" x2="94.664" y2="79.569"/>
				
					<line fill="none" stroke="#585859" stroke-width="0.1" stroke-miterlimit="10" x1="175.137" y1="2.653" x2="98.221" y2="79.569"/>
				
					<line fill="none" stroke="#585859" stroke-width="0.1" stroke-miterlimit="10" x1="178.692" y1="2.653" x2="101.775" y2="79.569"/>
				
					<line fill="none" stroke="#585859" stroke-width="0.1" stroke-miterlimit="10" x1="182.248" y1="2.653" x2="105.332" y2="79.569"/>
				
					<line fill="none" stroke="#585859" stroke-width="0.1" stroke-miterlimit="10" x1="185.805" y1="2.653" x2="108.889" y2="79.569"/>
			</g>
			<g>
				
					<line fill="none" stroke="#585859" stroke-width="0.1" stroke-miterlimit="10" x1="126.873" y1="20.638" x2="49.957" y2="-56.278"/>
				
					<line fill="none" stroke="#585859" stroke-width="0.1" stroke-miterlimit="10" x1="126.873" y1="24.193" x2="49.957" y2="-52.722"/>
				
					<line fill="none" stroke="#585859" stroke-width="0.1" stroke-miterlimit="10" x1="126.873" y1="27.749" x2="49.957" y2="-49.167"/>
				
					<line fill="none" stroke="#585859" stroke-width="0.1" stroke-miterlimit="10" x1="126.873" y1="31.306" x2="49.957" y2="-45.61"/>
				
					<line fill="none" stroke="#585859" stroke-width="0.1" stroke-miterlimit="10" x1="126.873" y1="34.86" x2="49.957" y2="-42.054"/>
				
					<line fill="none" stroke="#585859" stroke-width="0.1" stroke-miterlimit="10" x1="126.873" y1="38.417" x2="49.957" y2="-38.499"/>
				
					<line fill="none" stroke="#585859" stroke-width="0.1" stroke-miterlimit="10" x1="126.873" y1="41.974" x2="49.957" y2="-34.942"/>
				
					<line fill="none" stroke="#585859" stroke-width="0.1" stroke-miterlimit="10" x1="126.873" y1="45.529" x2="49.957" y2="-31.386"/>
				
					<line fill="none" stroke="#585859" stroke-width="0.1" stroke-miterlimit="10" x1="126.873" y1="49.085" x2="49.957" y2="-27.83"/>
				
					<line fill="none" stroke="#585859" stroke-width="0.1" stroke-miterlimit="10" x1="126.873" y1="52.642" x2="49.957" y2="-24.274"/>
				
					<line fill="none" stroke="#585859" stroke-width="0.1" stroke-miterlimit="10" x1="126.873" y1="56.285" x2="49.957" y2="-20.631"/>
				
					<line fill="none" stroke="#585859" stroke-width="0.1" stroke-miterlimit="10" x1="126.873" y1="59.843" x2="49.957" y2="-17.075"/>
				
					<line fill="none" stroke="#585859" stroke-width="0.1" stroke-miterlimit="10" x1="126.873" y1="63.396" x2="49.957" y2="-13.52"/>
				
					<line fill="none" stroke="#585859" stroke-width="0.1" stroke-miterlimit="10" x1="126.873" y1="67.38" x2="49.957" y2="-9.536"/>
				
					<line fill="none" stroke="#585859" stroke-width="0.1" stroke-miterlimit="10" x1="126.873" y1="70.936" x2="49.957" y2="-5.979"/>
				
					<line fill="none" stroke="#585859" stroke-width="0.1" stroke-miterlimit="10" x1="126.873" y1="74.493" x2="49.957" y2="-2.424"/>
				
					<line fill="none" stroke="#585859" stroke-width="0.1" stroke-miterlimit="10" x1="126.873" y1="78.047" x2="49.957" y2="1.132"/>
				
					<line fill="none" stroke="#585859" stroke-width="0.1" stroke-miterlimit="10" x1="126.873" y1="81.605" x2="49.957" y2="4.688"/>
				
					<line fill="none" stroke="#585859" stroke-width="0.1" stroke-miterlimit="10" x1="126.873" y1="85.16" x2="49.957" y2="8.245"/>
				
					<line fill="none" stroke="#585859" stroke-width="0.1" stroke-miterlimit="10" x1="126.873" y1="88.717" x2="49.957" y2="11.801"/>
				
					<line fill="none" stroke="#585859" stroke-width="0.1" stroke-miterlimit="10" x1="126.873" y1="92.272" x2="49.957" y2="15.356"/>
				
					<line fill="none" stroke="#585859" stroke-width="0.1" stroke-miterlimit="10" x1="126.873" y1="95.828" x2="49.957" y2="18.912"/>
				
					<line fill="none" stroke="#585859" stroke-width="0.1" stroke-miterlimit="10" x1="126.873" y1="99.384" x2="49.957" y2="22.469"/>
				
					<line fill="none" stroke="#585859" stroke-width="0.1" stroke-miterlimit="10" x1="126.873" y1="102.941" x2="49.957" y2="26.024"/>
				
					<line fill="none" stroke="#585859" stroke-width="0.1" stroke-miterlimit="10" x1="126.873" y1="106.496" x2="49.957" y2="29.58"/>
				
					<line fill="none" stroke="#585859" stroke-width="0.1" stroke-miterlimit="10" x1="126.873" y1="110.053" x2="49.957" y2="33.136"/>
				
					<line fill="none" stroke="#585859" stroke-width="0.1" stroke-miterlimit="10" x1="126.873" y1="113.609" x2="49.957" y2="36.692"/>
				
					<line fill="none" stroke="#585859" stroke-width="0.1" stroke-miterlimit="10" x1="126.873" y1="117.166" x2="49.957" y2="40.249"/>
				
					<line fill="none" stroke="#585859" stroke-width="0.1" stroke-miterlimit="10" x1="126.873" y1="120.72" x2="49.957" y2="43.805"/>
				
					<line fill="none" stroke="#585859" stroke-width="0.1" stroke-miterlimit="10" x1="126.873" y1="124.277" x2="49.957" y2="47.36"/>
				
					<line fill="none" stroke="#585859" stroke-width="0.1" stroke-miterlimit="10" x1="126.873" y1="127.833" x2="49.957" y2="50.917"/>
				
					<line fill="none" stroke="#585859" stroke-width="0.1" stroke-miterlimit="10" x1="126.873" y1="131.389" x2="49.957" y2="54.472"/>
				
					<line fill="none" stroke="#585859" stroke-width="0.1" stroke-miterlimit="10" x1="126.873" y1="134.944" x2="49.957" y2="58.028"/>
				
					<line fill="none" stroke="#585859" stroke-width="0.1" stroke-miterlimit="10" x1="126.873" y1="138.501" x2="49.957" y2="61.585"/>
			</g>
		</g>
	</g>
</g>
</svg>
