<?xml version="1.0" encoding="utf-8"?>
<!-- Generator: Adobe Illustrator 15.1.0, SVG Export Plug-In . SVG Version: 6.00 Build 0)  -->
<!DOCTYPE svg PUBLIC "-//W3C//DTD SVG 1.1//EN" "http://www.w3.org/Graphics/SVG/1.1/DTD/svg11.dtd">
<svg version="1.1" id="Layer_1" xmlns="http://www.w3.org/2000/svg" xmlns:xlink="http://www.w3.org/1999/xlink" x="0px" y="0px"
	 width="100px" height="100px" viewBox="0 0 100 100" enable-background="new 0 0 100 100" xml:space="preserve">
<g>
	<g>
		<path fill="none" stroke="#585859" stroke-miterlimit="10" d="M76.875,86.994c0,0.961-0.779,1.74-1.741,1.74H24.865
			c-0.961,0-1.74-0.779-1.74-1.74V13.006c0-0.961,0.779-1.74,1.74-1.74h50.269c0.962,0,1.741,0.779,1.741,1.74V86.994z"/>
		<rect x="25.954" y="15.564" fill="none" stroke="#585859" stroke-miterlimit="10" width="48.092" height="11.098"/>
		<rect x="25.954" y="73.843" fill="none" stroke="#585859" stroke-miterlimit="10" width="48.092" height="11.098"/>
		<g>
			<g>
				<line fill="none" stroke="#585859" stroke-width="3" stroke-miterlimit="10" x1="28.032" y1="50.21" x2="71.75" y2="50.21"/>
				<line fill="none" stroke="#585859" stroke-width="2" stroke-miterlimit="10" x1="28.032" y1="54.71" x2="71.75" y2="54.71"/>
				<line fill="none" stroke="#585859" stroke-width="2" stroke-miterlimit="10" x1="28.032" y1="59.21" x2="71.75" y2="59.21"/>
				<line fill="none" stroke="#585859" stroke-width="2" stroke-miterlimit="10" x1="28.032" y1="63.71" x2="71.75" y2="63.71"/>
				<line fill="none" stroke="#585859" stroke-width="2" stroke-miterlimit="10" x1="28.032" y1="68.21" x2="71.75" y2="68.21"/>
			</g>
		</g>
		<g>
			<defs>
				<rect id="SVGID_1_" x="25.954" y="15.564" width="48.092" height="11.098"/>
			</defs>
			<clipPath id="SVGID_2_">
				<use xlink:href="#SVGID_1_"  overflow="visible"/>
			</clipPath>
			<g clip-path="url(#SVGID_2_)">
				
					<line fill="none" stroke="#585859" stroke-width="0.75" stroke-miterlimit="10" x1="19.691" y1="-6.347" x2="-57.225" y2="70.569"/>
				
					<line fill="none" stroke="#585859" stroke-width="0.75" stroke-miterlimit="10" x1="23.247" y1="-6.347" x2="-53.668" y2="70.569"/>
				
					<line fill="none" stroke="#585859" stroke-width="0.75" stroke-miterlimit="10" x1="26.803" y1="-6.347" x2="-50.113" y2="70.569"/>
				
					<line fill="none" stroke="#585859" stroke-width="0.75" stroke-miterlimit="10" x1="30.359" y1="-6.347" x2="-46.557" y2="70.569"/>
				<line fill="none" stroke="#585859" stroke-width="0.75" stroke-miterlimit="10" x1="33.914" y1="-6.347" x2="-43" y2="70.569"/>
				
					<line fill="none" stroke="#585859" stroke-width="0.75" stroke-miterlimit="10" x1="37.471" y1="-6.347" x2="-39.445" y2="70.569"/>
				
					<line fill="none" stroke="#585859" stroke-width="0.75" stroke-miterlimit="10" x1="41.027" y1="-6.347" x2="-35.889" y2="70.569"/>
				
					<line fill="none" stroke="#585859" stroke-width="0.75" stroke-miterlimit="10" x1="44.583" y1="-6.347" x2="-32.332" y2="70.569"/>
				
					<line fill="none" stroke="#585859" stroke-width="0.75" stroke-miterlimit="10" x1="48.139" y1="-6.347" x2="-28.776" y2="70.569"/>
				
					<line fill="none" stroke="#585859" stroke-width="0.75" stroke-miterlimit="10" x1="51.695" y1="-6.347" x2="-25.221" y2="70.569"/>
				
					<line fill="none" stroke="#585859" stroke-width="0.75" stroke-miterlimit="10" x1="55.339" y1="-6.347" x2="-21.577" y2="70.569"/>
				
					<line fill="none" stroke="#585859" stroke-width="0.75" stroke-miterlimit="10" x1="58.896" y1="-6.347" x2="-18.021" y2="70.569"/>
				
					<line fill="none" stroke="#585859" stroke-width="0.75" stroke-miterlimit="10" x1="62.45" y1="-6.347" x2="-14.466" y2="70.569"/>
				
					<line fill="none" stroke="#585859" stroke-width="0.75" stroke-miterlimit="10" x1="66.434" y1="-6.347" x2="-10.482" y2="70.569"/>
				
					<line fill="none" stroke="#585859" stroke-width="0.75" stroke-miterlimit="10" x1="69.989" y1="-6.347" x2="-6.926" y2="70.569"/>
				
					<line fill="none" stroke="#585859" stroke-width="0.75" stroke-miterlimit="10" x1="73.547" y1="-6.347" x2="-3.37" y2="70.569"/>
				
					<line fill="none" stroke="#585859" stroke-width="0.75" stroke-miterlimit="10" x1="77.101" y1="-6.347" x2="0.186" y2="70.569"/>
				
					<line fill="none" stroke="#585859" stroke-width="0.75" stroke-miterlimit="10" x1="80.659" y1="-6.347" x2="3.741" y2="70.569"/>
				
					<line fill="none" stroke="#585859" stroke-width="0.75" stroke-miterlimit="10" x1="84.214" y1="-6.347" x2="7.299" y2="70.569"/>
				
					<line fill="none" stroke="#585859" stroke-width="0.75" stroke-miterlimit="10" x1="87.771" y1="-6.347" x2="10.854" y2="70.569"/>
				
					<line fill="none" stroke="#585859" stroke-width="0.75" stroke-miterlimit="10" x1="91.326" y1="-6.347" x2="14.41" y2="70.569"/>
				
					<line fill="none" stroke="#585859" stroke-width="0.75" stroke-miterlimit="10" x1="94.882" y1="-6.347" x2="17.966" y2="70.569"/>
				
					<line fill="none" stroke="#585859" stroke-width="0.75" stroke-miterlimit="10" x1="98.438" y1="-6.347" x2="21.522" y2="70.569"/>
				
					<line fill="none" stroke="#585859" stroke-width="0.75" stroke-miterlimit="10" x1="101.995" y1="-6.347" x2="25.078" y2="70.569"/>
				
					<line fill="none" stroke="#585859" stroke-width="0.75" stroke-miterlimit="10" x1="105.55" y1="-6.347" x2="28.634" y2="70.569"/>
				
					<line fill="none" stroke="#585859" stroke-width="0.75" stroke-miterlimit="10" x1="109.106" y1="-6.347" x2="32.189" y2="70.569"/>
				
					<line fill="none" stroke="#585859" stroke-width="0.75" stroke-miterlimit="10" x1="112.663" y1="-6.347" x2="35.746" y2="70.569"/>
				
					<line fill="none" stroke="#585859" stroke-width="0.75" stroke-miterlimit="10" x1="116.22" y1="-6.347" x2="39.303" y2="70.569"/>
				
					<line fill="none" stroke="#585859" stroke-width="0.75" stroke-miterlimit="10" x1="119.773" y1="-6.347" x2="42.858" y2="70.569"/>
				
					<line fill="none" stroke="#585859" stroke-width="0.75" stroke-miterlimit="10" x1="123.331" y1="-6.347" x2="46.414" y2="70.569"/>
				
					<line fill="none" stroke="#585859" stroke-width="0.75" stroke-miterlimit="10" x1="126.887" y1="-6.347" x2="49.971" y2="70.569"/>
				
					<line fill="none" stroke="#585859" stroke-width="0.75" stroke-miterlimit="10" x1="130.442" y1="-6.347" x2="53.525" y2="70.569"/>
				
					<line fill="none" stroke="#585859" stroke-width="0.75" stroke-miterlimit="10" x1="133.998" y1="-6.347" x2="57.082" y2="70.569"/>
				
					<line fill="none" stroke="#585859" stroke-width="0.75" stroke-miterlimit="10" x1="137.555" y1="-6.347" x2="60.639" y2="70.569"/>
			</g>
		</g>
		<g>
			<defs>
				<rect id="SVGID_3_" x="25.954" y="74.23" width="48.092" height="11.099"/>
			</defs>
			<clipPath id="SVGID_4_">
				<use xlink:href="#SVGID_3_"  overflow="visible"/>
			</clipPath>
			<g clip-path="url(#SVGID_4_)">
				
					<line fill="none" stroke="#585859" stroke-width="0.75" stroke-miterlimit="10" x1="19.691" y1="52.32" x2="-57.225" y2="129.236"/>
				
					<line fill="none" stroke="#585859" stroke-width="0.75" stroke-miterlimit="10" x1="23.247" y1="52.32" x2="-53.668" y2="129.236"/>
				
					<line fill="none" stroke="#585859" stroke-width="0.75" stroke-miterlimit="10" x1="26.803" y1="52.32" x2="-50.113" y2="129.236"/>
				
					<line fill="none" stroke="#585859" stroke-width="0.75" stroke-miterlimit="10" x1="30.359" y1="52.32" x2="-46.557" y2="129.236"/>
				<line fill="none" stroke="#585859" stroke-width="0.75" stroke-miterlimit="10" x1="33.914" y1="52.32" x2="-43" y2="129.236"/>
				
					<line fill="none" stroke="#585859" stroke-width="0.75" stroke-miterlimit="10" x1="37.471" y1="52.32" x2="-39.445" y2="129.236"/>
				
					<line fill="none" stroke="#585859" stroke-width="0.75" stroke-miterlimit="10" x1="41.027" y1="52.32" x2="-35.889" y2="129.236"/>
				
					<line fill="none" stroke="#585859" stroke-width="0.75" stroke-miterlimit="10" x1="44.583" y1="52.32" x2="-32.332" y2="129.236"/>
				
					<line fill="none" stroke="#585859" stroke-width="0.75" stroke-miterlimit="10" x1="48.139" y1="52.32" x2="-28.776" y2="129.236"/>
				
					<line fill="none" stroke="#585859" stroke-width="0.75" stroke-miterlimit="10" x1="51.695" y1="52.32" x2="-25.221" y2="129.236"/>
				
					<line fill="none" stroke="#585859" stroke-width="0.75" stroke-miterlimit="10" x1="55.339" y1="52.32" x2="-21.577" y2="129.236"/>
				
					<line fill="none" stroke="#585859" stroke-width="0.75" stroke-miterlimit="10" x1="58.896" y1="52.32" x2="-18.021" y2="129.236"/>
				
					<line fill="none" stroke="#585859" stroke-width="0.75" stroke-miterlimit="10" x1="62.45" y1="52.32" x2="-14.466" y2="129.236"/>
				
					<line fill="none" stroke="#585859" stroke-width="0.75" stroke-miterlimit="10" x1="66.434" y1="52.32" x2="-10.482" y2="129.236"/>
				
					<line fill="none" stroke="#585859" stroke-width="0.75" stroke-miterlimit="10" x1="69.989" y1="52.32" x2="-6.926" y2="129.236"/>
				
					<line fill="none" stroke="#585859" stroke-width="0.75" stroke-miterlimit="10" x1="73.547" y1="52.32" x2="-3.37" y2="129.236"/>
				
					<line fill="none" stroke="#585859" stroke-width="0.75" stroke-miterlimit="10" x1="77.101" y1="52.32" x2="0.186" y2="129.236"/>
				
					<line fill="none" stroke="#585859" stroke-width="0.75" stroke-miterlimit="10" x1="80.659" y1="52.32" x2="3.741" y2="129.236"/>
				
					<line fill="none" stroke="#585859" stroke-width="0.75" stroke-miterlimit="10" x1="84.214" y1="52.32" x2="7.299" y2="129.236"/>
				
					<line fill="none" stroke="#585859" stroke-width="0.75" stroke-miterlimit="10" x1="87.771" y1="52.32" x2="10.854" y2="129.236"/>
				
					<line fill="none" stroke="#585859" stroke-width="0.75" stroke-miterlimit="10" x1="91.326" y1="52.32" x2="14.41" y2="129.236"/>
				
					<line fill="none" stroke="#585859" stroke-width="0.75" stroke-miterlimit="10" x1="94.882" y1="52.32" x2="17.966" y2="129.236"/>
				
					<line fill="none" stroke="#585859" stroke-width="0.75" stroke-miterlimit="10" x1="98.438" y1="52.32" x2="21.522" y2="129.236"/>
				
					<line fill="none" stroke="#585859" stroke-width="0.75" stroke-miterlimit="10" x1="101.995" y1="52.32" x2="25.078" y2="129.236"/>
				
					<line fill="none" stroke="#585859" stroke-width="0.75" stroke-miterlimit="10" x1="105.55" y1="52.32" x2="28.634" y2="129.236"/>
				
					<line fill="none" stroke="#585859" stroke-width="0.75" stroke-miterlimit="10" x1="109.106" y1="52.32" x2="32.189" y2="129.236"/>
				
					<line fill="none" stroke="#585859" stroke-width="0.75" stroke-miterlimit="10" x1="112.663" y1="52.32" x2="35.746" y2="129.236"/>
				
					<line fill="none" stroke="#585859" stroke-width="0.75" stroke-miterlimit="10" x1="116.22" y1="52.32" x2="39.303" y2="129.236"/>
				
					<line fill="none" stroke="#585859" stroke-width="0.75" stroke-miterlimit="10" x1="119.773" y1="52.32" x2="42.858" y2="129.236"/>
				
					<line fill="none" stroke="#585859" stroke-width="0.75" stroke-miterlimit="10" x1="123.331" y1="52.32" x2="46.414" y2="129.236"/>
				
					<line fill="none" stroke="#585859" stroke-width="0.75" stroke-miterlimit="10" x1="126.887" y1="52.32" x2="49.971" y2="129.236"/>
				
					<line fill="none" stroke="#585859" stroke-width="0.75" stroke-miterlimit="10" x1="130.442" y1="52.32" x2="53.525" y2="129.236"/>
				
					<line fill="none" stroke="#585859" stroke-width="0.75" stroke-miterlimit="10" x1="133.998" y1="52.32" x2="57.082" y2="129.236"/>
				
					<line fill="none" stroke="#585859" stroke-width="0.75" stroke-miterlimit="10" x1="137.555" y1="52.32" x2="60.639" y2="129.236"/>
			</g>
		</g>
	</g>
	<g>
		<path fill="#585859" d="M70.712,30.985l0.035,13.167h-42l-0.035-13.167H70.712 M71.709,29.985h-44l0.041,15.167h44L71.709,29.985
			L71.709,29.985z"/>
	</g>
	<line fill="none" stroke="#585859" stroke-miterlimit="10" x1="28.25" y1="30.652" x2="71.375" y2="44.444"/>
	<line fill="none" stroke="#585859" stroke-miterlimit="10" x1="71.375" y1="30.819" x2="28" y2="44.152"/>
</g>
</svg>
