<?xml version="1.0" encoding="utf-8"?>
<!-- Generator: Adobe Illustrator 15.1.0, SVG Export Plug-In . SVG Version: 6.00 Build 0)  -->
<!DOCTYPE svg PUBLIC "-//W3C//DTD SVG 1.1//EN" "http://www.w3.org/Graphics/SVG/1.1/DTD/svg11.dtd">
<svg version="1.1" id="Layer_1" xmlns="http://www.w3.org/2000/svg" xmlns:xlink="http://www.w3.org/1999/xlink" x="0px" y="0px"
	 width="100px" height="100px" viewBox="0 0 100 100" enable-background="new 0 0 100 100" xml:space="preserve">
<g>
	<path fill="none" stroke="#585859" stroke-miterlimit="10" d="M76.875,86.994c0,0.961-0.779,1.74-1.741,1.74H24.865
		c-0.961,0-1.74-0.779-1.74-1.74V13.006c0-0.961,0.779-1.74,1.74-1.74h50.269c0.962,0,1.741,0.779,1.741,1.74V86.994z"/>
	<g>
		<line fill="none" stroke="#585859" stroke-miterlimit="10" x1="28.032" y1="31.79" x2="54.25" y2="31.79"/>
		<g>
			<line fill="none" stroke="#585859" stroke-width="2" stroke-miterlimit="10" x1="28.032" y1="36.71" x2="54.25" y2="36.71"/>
			<line fill="none" stroke="#585859" stroke-width="2" stroke-miterlimit="10" x1="28.032" y1="41.21" x2="54.25" y2="41.21"/>
			<line fill="none" stroke="#585859" stroke-width="2" stroke-miterlimit="10" x1="28.032" y1="45.71" x2="54.25" y2="45.71"/>
			<line fill="none" stroke="#585859" stroke-width="2" stroke-miterlimit="10" x1="28.032" y1="50.21" x2="54.25" y2="50.21"/>
			<line fill="none" stroke="#585859" stroke-width="2" stroke-miterlimit="10" x1="28.032" y1="54.71" x2="54.25" y2="54.71"/>
			<line fill="none" stroke="#585859" stroke-width="2" stroke-miterlimit="10" x1="28.032" y1="59.21" x2="54.25" y2="59.21"/>
			<line fill="none" stroke="#585859" stroke-width="2" stroke-miterlimit="10" x1="28.032" y1="63.71" x2="54.25" y2="63.71"/>
			<line fill="none" stroke="#585859" stroke-width="2" stroke-miterlimit="10" x1="28.032" y1="68.21" x2="54.25" y2="68.21"/>
			<line fill="none" stroke="#585859" stroke-width="3" stroke-miterlimit="10" x1="28.032" y1="32.21" x2="54.25" y2="32.21"/>
		</g>
	</g>
	<rect x="26.204" y="15.564" fill="none" stroke="#585859" stroke-miterlimit="10" width="48.092" height="11.098"/>
	<rect x="26.204" y="73.843" fill="none" stroke="#585859" stroke-miterlimit="10" width="48.092" height="11.098"/>
	<g>
		<defs>
			<rect id="SVGID_1_" x="26.204" y="15.564" width="48.092" height="11.098"/>
		</defs>
		<clipPath id="SVGID_2_">
			<use xlink:href="#SVGID_1_"  overflow="visible"/>
		</clipPath>
		<g clip-path="url(#SVGID_2_)">
			
				<line fill="none" stroke="#585859" stroke-width="0.75" stroke-miterlimit="10" x1="19.941" y1="-6.347" x2="-56.975" y2="70.569"/>
			
				<line fill="none" stroke="#585859" stroke-width="0.75" stroke-miterlimit="10" x1="23.497" y1="-6.347" x2="-53.418" y2="70.569"/>
			
				<line fill="none" stroke="#585859" stroke-width="0.75" stroke-miterlimit="10" x1="27.053" y1="-6.347" x2="-49.863" y2="70.569"/>
			
				<line fill="none" stroke="#585859" stroke-width="0.75" stroke-miterlimit="10" x1="30.609" y1="-6.347" x2="-46.307" y2="70.569"/>
			
				<line fill="none" stroke="#585859" stroke-width="0.75" stroke-miterlimit="10" x1="34.164" y1="-6.347" x2="-42.75" y2="70.569"/>
			
				<line fill="none" stroke="#585859" stroke-width="0.75" stroke-miterlimit="10" x1="37.721" y1="-6.347" x2="-39.195" y2="70.569"/>
			
				<line fill="none" stroke="#585859" stroke-width="0.75" stroke-miterlimit="10" x1="41.277" y1="-6.347" x2="-35.639" y2="70.569"/>
			
				<line fill="none" stroke="#585859" stroke-width="0.75" stroke-miterlimit="10" x1="44.833" y1="-6.347" x2="-32.082" y2="70.569"/>
			
				<line fill="none" stroke="#585859" stroke-width="0.75" stroke-miterlimit="10" x1="48.389" y1="-6.347" x2="-28.526" y2="70.569"/>
			
				<line fill="none" stroke="#585859" stroke-width="0.75" stroke-miterlimit="10" x1="51.945" y1="-6.347" x2="-24.971" y2="70.569"/>
			
				<line fill="none" stroke="#585859" stroke-width="0.75" stroke-miterlimit="10" x1="55.589" y1="-6.347" x2="-21.327" y2="70.569"/>
			
				<line fill="none" stroke="#585859" stroke-width="0.75" stroke-miterlimit="10" x1="59.146" y1="-6.347" x2="-17.771" y2="70.569"/>
			
				<line fill="none" stroke="#585859" stroke-width="0.75" stroke-miterlimit="10" x1="62.7" y1="-6.347" x2="-14.216" y2="70.569"/>
			
				<line fill="none" stroke="#585859" stroke-width="0.75" stroke-miterlimit="10" x1="66.684" y1="-6.347" x2="-10.232" y2="70.569"/>
			
				<line fill="none" stroke="#585859" stroke-width="0.75" stroke-miterlimit="10" x1="70.239" y1="-6.347" x2="-6.676" y2="70.569"/>
			
				<line fill="none" stroke="#585859" stroke-width="0.75" stroke-miterlimit="10" x1="73.797" y1="-6.347" x2="-3.12" y2="70.569"/>
			
				<line fill="none" stroke="#585859" stroke-width="0.75" stroke-miterlimit="10" x1="77.351" y1="-6.347" x2="0.436" y2="70.569"/>
			
				<line fill="none" stroke="#585859" stroke-width="0.75" stroke-miterlimit="10" x1="80.909" y1="-6.347" x2="3.991" y2="70.569"/>
			
				<line fill="none" stroke="#585859" stroke-width="0.75" stroke-miterlimit="10" x1="84.464" y1="-6.347" x2="7.549" y2="70.569"/>
			
				<line fill="none" stroke="#585859" stroke-width="0.75" stroke-miterlimit="10" x1="88.021" y1="-6.347" x2="11.104" y2="70.569"/>
			
				<line fill="none" stroke="#585859" stroke-width="0.75" stroke-miterlimit="10" x1="91.576" y1="-6.347" x2="14.66" y2="70.569"/>
			
				<line fill="none" stroke="#585859" stroke-width="0.75" stroke-miterlimit="10" x1="95.132" y1="-6.347" x2="18.216" y2="70.569"/>
			
				<line fill="none" stroke="#585859" stroke-width="0.75" stroke-miterlimit="10" x1="98.688" y1="-6.347" x2="21.772" y2="70.569"/>
			
				<line fill="none" stroke="#585859" stroke-width="0.75" stroke-miterlimit="10" x1="102.245" y1="-6.347" x2="25.328" y2="70.569"/>
			
				<line fill="none" stroke="#585859" stroke-width="0.75" stroke-miterlimit="10" x1="105.8" y1="-6.347" x2="28.884" y2="70.569"/>
			
				<line fill="none" stroke="#585859" stroke-width="0.75" stroke-miterlimit="10" x1="109.356" y1="-6.347" x2="32.439" y2="70.569"/>
			
				<line fill="none" stroke="#585859" stroke-width="0.75" stroke-miterlimit="10" x1="112.913" y1="-6.347" x2="35.996" y2="70.569"/>
			
				<line fill="none" stroke="#585859" stroke-width="0.75" stroke-miterlimit="10" x1="116.47" y1="-6.347" x2="39.553" y2="70.569"/>
			
				<line fill="none" stroke="#585859" stroke-width="0.75" stroke-miterlimit="10" x1="120.023" y1="-6.347" x2="43.108" y2="70.569"/>
			
				<line fill="none" stroke="#585859" stroke-width="0.75" stroke-miterlimit="10" x1="123.581" y1="-6.347" x2="46.664" y2="70.569"/>
			
				<line fill="none" stroke="#585859" stroke-width="0.75" stroke-miterlimit="10" x1="127.137" y1="-6.347" x2="50.221" y2="70.569"/>
			
				<line fill="none" stroke="#585859" stroke-width="0.75" stroke-miterlimit="10" x1="130.692" y1="-6.347" x2="53.775" y2="70.569"/>
			
				<line fill="none" stroke="#585859" stroke-width="0.75" stroke-miterlimit="10" x1="134.248" y1="-6.347" x2="57.332" y2="70.569"/>
			
				<line fill="none" stroke="#585859" stroke-width="0.75" stroke-miterlimit="10" x1="137.805" y1="-6.347" x2="60.889" y2="70.569"/>
		</g>
	</g>
	<g>
		<defs>
			<rect id="SVGID_3_" x="26.204" y="74.23" width="48.092" height="11.099"/>
		</defs>
		<clipPath id="SVGID_4_">
			<use xlink:href="#SVGID_3_"  overflow="visible"/>
		</clipPath>
		<g clip-path="url(#SVGID_4_)">
			
				<line fill="none" stroke="#585859" stroke-width="0.75" stroke-miterlimit="10" x1="19.941" y1="52.32" x2="-56.975" y2="129.236"/>
			
				<line fill="none" stroke="#585859" stroke-width="0.75" stroke-miterlimit="10" x1="23.497" y1="52.32" x2="-53.418" y2="129.236"/>
			
				<line fill="none" stroke="#585859" stroke-width="0.75" stroke-miterlimit="10" x1="27.053" y1="52.32" x2="-49.863" y2="129.236"/>
			
				<line fill="none" stroke="#585859" stroke-width="0.75" stroke-miterlimit="10" x1="30.609" y1="52.32" x2="-46.307" y2="129.236"/>
			
				<line fill="none" stroke="#585859" stroke-width="0.75" stroke-miterlimit="10" x1="34.164" y1="52.32" x2="-42.75" y2="129.236"/>
			
				<line fill="none" stroke="#585859" stroke-width="0.75" stroke-miterlimit="10" x1="37.721" y1="52.32" x2="-39.195" y2="129.236"/>
			
				<line fill="none" stroke="#585859" stroke-width="0.75" stroke-miterlimit="10" x1="41.277" y1="52.32" x2="-35.639" y2="129.236"/>
			
				<line fill="none" stroke="#585859" stroke-width="0.75" stroke-miterlimit="10" x1="44.833" y1="52.32" x2="-32.082" y2="129.236"/>
			
				<line fill="none" stroke="#585859" stroke-width="0.75" stroke-miterlimit="10" x1="48.389" y1="52.32" x2="-28.526" y2="129.236"/>
			
				<line fill="none" stroke="#585859" stroke-width="0.75" stroke-miterlimit="10" x1="51.945" y1="52.32" x2="-24.971" y2="129.236"/>
			
				<line fill="none" stroke="#585859" stroke-width="0.75" stroke-miterlimit="10" x1="55.589" y1="52.32" x2="-21.327" y2="129.236"/>
			
				<line fill="none" stroke="#585859" stroke-width="0.75" stroke-miterlimit="10" x1="59.146" y1="52.32" x2="-17.771" y2="129.236"/>
			
				<line fill="none" stroke="#585859" stroke-width="0.75" stroke-miterlimit="10" x1="62.7" y1="52.32" x2="-14.216" y2="129.236"/>
			
				<line fill="none" stroke="#585859" stroke-width="0.75" stroke-miterlimit="10" x1="66.684" y1="52.32" x2="-10.232" y2="129.236"/>
			
				<line fill="none" stroke="#585859" stroke-width="0.75" stroke-miterlimit="10" x1="70.239" y1="52.32" x2="-6.676" y2="129.236"/>
			
				<line fill="none" stroke="#585859" stroke-width="0.75" stroke-miterlimit="10" x1="73.797" y1="52.32" x2="-3.12" y2="129.236"/>
			
				<line fill="none" stroke="#585859" stroke-width="0.75" stroke-miterlimit="10" x1="77.351" y1="52.32" x2="0.436" y2="129.236"/>
			
				<line fill="none" stroke="#585859" stroke-width="0.75" stroke-miterlimit="10" x1="80.909" y1="52.32" x2="3.991" y2="129.236"/>
			
				<line fill="none" stroke="#585859" stroke-width="0.75" stroke-miterlimit="10" x1="84.464" y1="52.32" x2="7.549" y2="129.236"/>
			
				<line fill="none" stroke="#585859" stroke-width="0.75" stroke-miterlimit="10" x1="88.021" y1="52.32" x2="11.104" y2="129.236"/>
			
				<line fill="none" stroke="#585859" stroke-width="0.75" stroke-miterlimit="10" x1="91.576" y1="52.32" x2="14.66" y2="129.236"/>
			
				<line fill="none" stroke="#585859" stroke-width="0.75" stroke-miterlimit="10" x1="95.132" y1="52.32" x2="18.216" y2="129.236"/>
			
				<line fill="none" stroke="#585859" stroke-width="0.75" stroke-miterlimit="10" x1="98.688" y1="52.32" x2="21.772" y2="129.236"/>
			
				<line fill="none" stroke="#585859" stroke-width="0.75" stroke-miterlimit="10" x1="102.245" y1="52.32" x2="25.328" y2="129.236"/>
			
				<line fill="none" stroke="#585859" stroke-width="0.75" stroke-miterlimit="10" x1="105.8" y1="52.32" x2="28.884" y2="129.236"/>
			
				<line fill="none" stroke="#585859" stroke-width="0.75" stroke-miterlimit="10" x1="109.356" y1="52.32" x2="32.439" y2="129.236"/>
			
				<line fill="none" stroke="#585859" stroke-width="0.75" stroke-miterlimit="10" x1="112.913" y1="52.32" x2="35.996" y2="129.236"/>
			
				<line fill="none" stroke="#585859" stroke-width="0.75" stroke-miterlimit="10" x1="116.47" y1="52.32" x2="39.553" y2="129.236"/>
			
				<line fill="none" stroke="#585859" stroke-width="0.75" stroke-miterlimit="10" x1="120.023" y1="52.32" x2="43.108" y2="129.236"/>
			
				<line fill="none" stroke="#585859" stroke-width="0.75" stroke-miterlimit="10" x1="123.581" y1="52.32" x2="46.664" y2="129.236"/>
			
				<line fill="none" stroke="#585859" stroke-width="0.75" stroke-miterlimit="10" x1="127.137" y1="52.32" x2="50.221" y2="129.236"/>
			
				<line fill="none" stroke="#585859" stroke-width="0.75" stroke-miterlimit="10" x1="130.692" y1="52.32" x2="53.775" y2="129.236"/>
			
				<line fill="none" stroke="#585859" stroke-width="0.75" stroke-miterlimit="10" x1="134.248" y1="52.32" x2="57.332" y2="129.236"/>
			
				<line fill="none" stroke="#585859" stroke-width="0.75" stroke-miterlimit="10" x1="137.805" y1="52.32" x2="60.889" y2="129.236"/>
		</g>
	</g>
	<rect x="58.031" y="31.329" fill="none" stroke="#585859" stroke-miterlimit="10" width="14.25" height="37.75"/>
	<g>
		<rect x="60.662" y="34.32" fill="none" stroke="#585859" stroke-miterlimit="10" width="8.988" height="6.045"/>
		<rect x="60.662" y="42.916" fill="none" stroke="#585859" stroke-miterlimit="10" width="8.988" height="6.045"/>
		<rect x="60.662" y="51.513" fill="none" stroke="#585859" stroke-miterlimit="10" width="8.988" height="6.045"/>
		<rect x="60.662" y="60.108" fill="none" stroke="#585859" stroke-miterlimit="10" width="8.988" height="6.045"/>
	</g>
</g>
</svg>
