<?xml version="1.0" encoding="utf-8"?>
<!-- Generator: Adobe Illustrator 15.1.0, SVG Export Plug-In . SVG Version: 6.00 Build 0)  -->
<!DOCTYPE svg PUBLIC "-//W3C//DTD SVG 1.1//EN" "http://www.w3.org/Graphics/SVG/1.1/DTD/svg11.dtd">
<svg version="1.1" id="Layer_1" xmlns="http://www.w3.org/2000/svg" xmlns:xlink="http://www.w3.org/1999/xlink" x="0px" y="0px"
	 width="100px" height="100px" viewBox="0 0 100 100" enable-background="new 0 0 100 100" xml:space="preserve">
<g>
	<g>
		<path fill="none" stroke="#585859" stroke-miterlimit="10" d="M76.863,86.494c0,0.961-0.779,1.74-1.74,1.74H24.854
			c-0.961,0-1.74-0.779-1.74-1.74V13.506c0-0.961,0.779-1.74,1.74-1.74h50.269c0.961,0,1.74,0.779,1.74,1.74V86.494z"/>
		<g>
			<g>
				<line fill="none" stroke="#585859" stroke-width="3" stroke-miterlimit="10" x1="57.49" y1="18.043" x2="71.822" y2="18.043"/>
				<line fill="none" stroke="#585859" stroke-width="2" stroke-miterlimit="10" x1="57.49" y1="22.543" x2="71.822" y2="22.543"/>
				<line fill="none" stroke="#585859" stroke-width="2" stroke-miterlimit="10" x1="57.49" y1="27.043" x2="71.822" y2="27.043"/>
				<line fill="none" stroke="#585859" stroke-width="2" stroke-miterlimit="10" x1="57.49" y1="31.543" x2="71.822" y2="31.543"/>
			</g>
		</g>
		<g>
			<g>
				<line fill="none" stroke="#585859" stroke-width="2" stroke-miterlimit="10" x1="28.49" y1="35.793" x2="71.822" y2="35.793"/>
				<line fill="none" stroke="#585859" stroke-width="2" stroke-miterlimit="10" x1="28.49" y1="40.293" x2="71.822" y2="40.293"/>
				<line fill="none" stroke="#585859" stroke-width="2" stroke-miterlimit="10" x1="28.49" y1="44.793" x2="71.822" y2="44.793"/>
			</g>
		</g>
		<g>
			<line fill="none" stroke="#585859" stroke-miterlimit="10" x1="28.614" y1="16.861" x2="53.363" y2="30.361"/>
			<g>
				<g>
					<path fill="#585859" d="M52.95,17.152l0.035,13.168H28.986L28.95,17.152H52.95 M53.947,16.152h-26l0.041,15.168h26
						L53.947,16.152L53.947,16.152z"/>
				</g>
				<line fill="none" stroke="#585859" stroke-miterlimit="10" x1="53.156" y1="16.82" x2="28.739" y2="30.486"/>
			</g>
		</g>
	</g>
	<g>
		<path fill="none" stroke="#585859" stroke-miterlimit="10" d="M76.863,86.27c0,0.961-0.779,1.74-1.74,1.74H24.854
			c-0.961,0-1.74-0.779-1.74-1.74V51.281c0-0.961,0.055-0.998,0.007-1.729l53.766-0.124c0,0.138-0.023,0.892-0.023,1.853V86.27z"/>
		<g>
			<g>
				<line fill="none" stroke="#585859" stroke-width="3" stroke-miterlimit="10" x1="57.49" y1="55.818" x2="71.822" y2="55.818"/>
				<line fill="none" stroke="#585859" stroke-width="2" stroke-miterlimit="10" x1="57.49" y1="60.318" x2="71.822" y2="60.318"/>
				<line fill="none" stroke="#585859" stroke-width="2" stroke-miterlimit="10" x1="57.49" y1="64.818" x2="71.822" y2="64.818"/>
				<line fill="none" stroke="#585859" stroke-width="2" stroke-miterlimit="10" x1="57.49" y1="69.318" x2="71.822" y2="69.318"/>
			</g>
		</g>
		<g>
			<g>
				<line fill="none" stroke="#585859" stroke-width="2" stroke-miterlimit="10" x1="28.49" y1="73.568" x2="71.822" y2="73.568"/>
				<line fill="none" stroke="#585859" stroke-width="2" stroke-miterlimit="10" x1="28.49" y1="78.068" x2="71.822" y2="78.068"/>
				<line fill="none" stroke="#585859" stroke-width="2" stroke-miterlimit="10" x1="28.49" y1="82.568" x2="71.822" y2="82.568"/>
			</g>
		</g>
		<g>
			<line fill="none" stroke="#585859" stroke-miterlimit="10" x1="28.614" y1="54.637" x2="53.363" y2="68.137"/>
			<g>
				<g>
					<path fill="#585859" d="M52.95,54.928l0.035,13.168H28.986L28.95,54.928H52.95 M53.947,53.928h-26l0.041,15.168h26
						L53.947,53.928L53.947,53.928z"/>
				</g>
				<line fill="none" stroke="#585859" stroke-miterlimit="10" x1="53.156" y1="54.596" x2="28.739" y2="68.262"/>
			</g>
		</g>
	</g>
</g>
</svg>
