<?xml version="1.0" encoding="utf-8"?>
<!-- Generator: Adobe Illustrator 15.1.0, SVG Export Plug-In . SVG Version: 6.00 Build 0)  -->
<!DOCTYPE svg PUBLIC "-//W3C//DTD SVG 1.1//EN" "http://www.w3.org/Graphics/SVG/1.1/DTD/svg11.dtd">
<svg version="1.1" id="Layer_1" xmlns="http://www.w3.org/2000/svg" xmlns:xlink="http://www.w3.org/1999/xlink" x="0px" y="0px"
	 width="100px" height="100px" viewBox="0 0 100 100" enable-background="new 0 0 100 100" xml:space="preserve">
<g>
	<path fill="none" stroke="#585859" stroke-miterlimit="10" d="M23.125,67.494c0,0.961,0.779,1.74,1.741,1.74h50.269
		c0.961,0,1.74-0.779,1.74-1.74V32.506c0-0.961-0.779-1.74-1.74-1.74H24.866c-0.962,0-1.741,0.779-1.741,1.74V67.494z"/>
	<g>
		<g>
			<line fill="none" stroke="#585859" stroke-width="3" stroke-miterlimit="10" x1="42.499" y1="37.043" x2="28.166" y2="37.043"/>
			<line fill="none" stroke="#585859" stroke-width="2" stroke-miterlimit="10" x1="42.499" y1="41.543" x2="28.166" y2="41.543"/>
			<line fill="none" stroke="#585859" stroke-width="2" stroke-miterlimit="10" x1="42.499" y1="46.043" x2="28.166" y2="46.043"/>
			<line fill="none" stroke="#585859" stroke-width="2" stroke-miterlimit="10" x1="42.499" y1="50.543" x2="28.166" y2="50.543"/>
		</g>
	</g>
	<g>
		<g>
			<line fill="none" stroke="#585859" stroke-width="2" stroke-miterlimit="10" x1="71.499" y1="54.793" x2="28.166" y2="54.793"/>
			<line fill="none" stroke="#585859" stroke-width="2" stroke-miterlimit="10" x1="71.499" y1="59.293" x2="28.166" y2="59.293"/>
			<line fill="none" stroke="#585859" stroke-width="2" stroke-miterlimit="10" x1="71.499" y1="63.793" x2="28.166" y2="63.793"/>
		</g>
	</g>
	<g>
		<line fill="none" stroke="#585859" stroke-miterlimit="10" x1="71.375" y1="35.861" x2="46.625" y2="49.361"/>
		<g>
			<g>
				<path fill="#585859" d="M71.038,36.152L71.003,49.32h-24l0.035-13.168H71.038 M72.041,35.152h-26L46,50.32h26L72.041,35.152
					L72.041,35.152z"/>
			</g>
			<line fill="none" stroke="#585859" stroke-miterlimit="10" x1="46.833" y1="35.82" x2="71.25" y2="49.486"/>
		</g>
	</g>
</g>
</svg>
