<?xml version="1.0" encoding="utf-8"?>
<!-- Generator: Adobe Illustrator 15.1.0, SVG Export Plug-In . SVG Version: 6.00 Build 0)  -->
<!DOCTYPE svg PUBLIC "-//W3C//DTD SVG 1.1//EN" "http://www.w3.org/Graphics/SVG/1.1/DTD/svg11.dtd">
<svg version="1.1" id="Layer_1" xmlns="http://www.w3.org/2000/svg" xmlns:xlink="http://www.w3.org/1999/xlink" x="0px" y="0px"
	 width="100px" height="100px" viewBox="0 0 100 100" enable-background="new 0 0 100 100" xml:space="preserve">
<g>
	<g>
		<defs>
			<rect id="SVGID_1_" x="57.865" y="30.662" width="14.25" height="38.75"/>
		</defs>
		<clipPath id="SVGID_2_">
			<use xlink:href="#SVGID_1_"  overflow="visible"/>
		</clipPath>
		<g clip-path="url(#SVGID_2_)">
			<g>
				
					<line fill="none" stroke="#585859" stroke-width="0.1" stroke-miterlimit="10" x1="54.388" y1="8.976" x2="-22.528" y2="85.892"/>
				
					<line fill="none" stroke="#585859" stroke-width="0.1" stroke-miterlimit="10" x1="57.943" y1="8.976" x2="-18.972" y2="85.892"/>
				
					<line fill="none" stroke="#585859" stroke-width="0.1" stroke-miterlimit="10" x1="61.499" y1="8.976" x2="-15.417" y2="85.892"/>
				
					<line fill="none" stroke="#585859" stroke-width="0.1" stroke-miterlimit="10" x1="65.056" y1="8.976" x2="-11.86" y2="85.892"/>
				<line fill="none" stroke="#585859" stroke-width="0.1" stroke-miterlimit="10" x1="68.61" y1="8.976" x2="-8.304" y2="85.892"/>
				
					<line fill="none" stroke="#585859" stroke-width="0.1" stroke-miterlimit="10" x1="72.167" y1="8.976" x2="-4.749" y2="85.892"/>
				
					<line fill="none" stroke="#585859" stroke-width="0.1" stroke-miterlimit="10" x1="75.724" y1="8.976" x2="-1.192" y2="85.892"/>
				<line fill="none" stroke="#585859" stroke-width="0.1" stroke-miterlimit="10" x1="79.279" y1="8.976" x2="2.364" y2="85.892"/>
				<line fill="none" stroke="#585859" stroke-width="0.1" stroke-miterlimit="10" x1="82.835" y1="8.976" x2="5.92" y2="85.892"/>
				<line fill="none" stroke="#585859" stroke-width="0.1" stroke-miterlimit="10" x1="86.392" y1="8.976" x2="9.476" y2="85.892"/>
				
					<line fill="none" stroke="#585859" stroke-width="0.1" stroke-miterlimit="10" x1="90.035" y1="8.976" x2="13.119" y2="85.892"/>
				
					<line fill="none" stroke="#585859" stroke-width="0.1" stroke-miterlimit="10" x1="93.593" y1="8.976" x2="16.675" y2="85.892"/>
				<line fill="none" stroke="#585859" stroke-width="0.1" stroke-miterlimit="10" x1="97.146" y1="8.976" x2="20.23" y2="85.892"/>
				
					<line fill="none" stroke="#585859" stroke-width="0.1" stroke-miterlimit="10" x1="101.13" y1="8.976" x2="24.214" y2="85.892"/>
				
					<line fill="none" stroke="#585859" stroke-width="0.1" stroke-miterlimit="10" x1="104.686" y1="8.976" x2="27.771" y2="85.892"/>
				
					<line fill="none" stroke="#585859" stroke-width="0.1" stroke-miterlimit="10" x1="108.243" y1="8.976" x2="31.326" y2="85.892"/>
				
					<line fill="none" stroke="#585859" stroke-width="0.1" stroke-miterlimit="10" x1="111.797" y1="8.976" x2="34.882" y2="85.892"/>
				
					<line fill="none" stroke="#585859" stroke-width="0.1" stroke-miterlimit="10" x1="115.355" y1="8.976" x2="38.438" y2="85.892"/>
				
					<line fill="none" stroke="#585859" stroke-width="0.1" stroke-miterlimit="10" x1="118.91" y1="8.976" x2="41.995" y2="85.892"/>
				
					<line fill="none" stroke="#585859" stroke-width="0.1" stroke-miterlimit="10" x1="122.467" y1="8.976" x2="45.551" y2="85.892"/>
				
					<line fill="none" stroke="#585859" stroke-width="0.1" stroke-miterlimit="10" x1="126.022" y1="8.976" x2="49.106" y2="85.892"/>
				
					<line fill="none" stroke="#585859" stroke-width="0.1" stroke-miterlimit="10" x1="129.578" y1="8.976" x2="52.662" y2="85.892"/>
				
					<line fill="none" stroke="#585859" stroke-width="0.1" stroke-miterlimit="10" x1="133.134" y1="8.976" x2="56.219" y2="85.892"/>
				
					<line fill="none" stroke="#585859" stroke-width="0.1" stroke-miterlimit="10" x1="136.691" y1="8.976" x2="59.774" y2="85.892"/>
				
					<line fill="none" stroke="#585859" stroke-width="0.1" stroke-miterlimit="10" x1="140.246" y1="8.976" x2="63.33" y2="85.892"/>
				
					<line fill="none" stroke="#585859" stroke-width="0.1" stroke-miterlimit="10" x1="143.803" y1="8.976" x2="66.886" y2="85.892"/>
				
					<line fill="none" stroke="#585859" stroke-width="0.1" stroke-miterlimit="10" x1="147.359" y1="8.976" x2="70.442" y2="85.892"/>
				
					<line fill="none" stroke="#585859" stroke-width="0.1" stroke-miterlimit="10" x1="150.916" y1="8.976" x2="73.999" y2="85.892"/>
				
					<line fill="none" stroke="#585859" stroke-width="0.1" stroke-miterlimit="10" x1="154.47" y1="8.976" x2="77.555" y2="85.892"/>
				
					<line fill="none" stroke="#585859" stroke-width="0.1" stroke-miterlimit="10" x1="158.027" y1="8.976" x2="81.11" y2="85.892"/>
				
					<line fill="none" stroke="#585859" stroke-width="0.1" stroke-miterlimit="10" x1="161.583" y1="8.976" x2="84.667" y2="85.892"/>
				
					<line fill="none" stroke="#585859" stroke-width="0.1" stroke-miterlimit="10" x1="165.139" y1="8.976" x2="88.222" y2="85.892"/>
				
					<line fill="none" stroke="#585859" stroke-width="0.1" stroke-miterlimit="10" x1="168.694" y1="8.976" x2="91.778" y2="85.892"/>
				
					<line fill="none" stroke="#585859" stroke-width="0.1" stroke-miterlimit="10" x1="172.251" y1="8.976" x2="95.335" y2="85.892"/>
			</g>
			<g>
				
					<line fill="none" stroke="#585859" stroke-width="0.1" stroke-miterlimit="10" x1="113.319" y1="26.96" x2="36.403" y2="-49.956"/>
				
					<line fill="none" stroke="#585859" stroke-width="0.1" stroke-miterlimit="10" x1="113.319" y1="30.516" x2="36.403" y2="-46.399"/>
				
					<line fill="none" stroke="#585859" stroke-width="0.1" stroke-miterlimit="10" x1="113.319" y1="34.071" x2="36.403" y2="-42.845"/>
				
					<line fill="none" stroke="#585859" stroke-width="0.1" stroke-miterlimit="10" x1="113.319" y1="37.628" x2="36.403" y2="-39.288"/>
				
					<line fill="none" stroke="#585859" stroke-width="0.1" stroke-miterlimit="10" x1="113.319" y1="41.183" x2="36.403" y2="-35.731"/>
				
					<line fill="none" stroke="#585859" stroke-width="0.1" stroke-miterlimit="10" x1="113.319" y1="44.739" x2="36.403" y2="-32.177"/>
				
					<line fill="none" stroke="#585859" stroke-width="0.1" stroke-miterlimit="10" x1="113.319" y1="48.296" x2="36.403" y2="-28.62"/>
				
					<line fill="none" stroke="#585859" stroke-width="0.1" stroke-miterlimit="10" x1="113.319" y1="51.852" x2="36.403" y2="-25.063"/>
				
					<line fill="none" stroke="#585859" stroke-width="0.1" stroke-miterlimit="10" x1="113.319" y1="55.407" x2="36.403" y2="-21.508"/>
				
					<line fill="none" stroke="#585859" stroke-width="0.1" stroke-miterlimit="10" x1="113.319" y1="58.964" x2="36.403" y2="-17.952"/>
				
					<line fill="none" stroke="#585859" stroke-width="0.1" stroke-miterlimit="10" x1="113.319" y1="62.607" x2="36.403" y2="-14.309"/>
				
					<line fill="none" stroke="#585859" stroke-width="0.1" stroke-miterlimit="10" x1="113.319" y1="66.165" x2="36.403" y2="-10.753"/>
				
					<line fill="none" stroke="#585859" stroke-width="0.1" stroke-miterlimit="10" x1="113.319" y1="69.719" x2="36.403" y2="-7.197"/>
				
					<line fill="none" stroke="#585859" stroke-width="0.1" stroke-miterlimit="10" x1="113.319" y1="73.702" x2="36.403" y2="-3.214"/>
				
					<line fill="none" stroke="#585859" stroke-width="0.1" stroke-miterlimit="10" x1="113.319" y1="77.258" x2="36.403" y2="0.343"/>
				
					<line fill="none" stroke="#585859" stroke-width="0.1" stroke-miterlimit="10" x1="113.319" y1="80.815" x2="36.403" y2="3.898"/>
				
					<line fill="none" stroke="#585859" stroke-width="0.1" stroke-miterlimit="10" x1="113.319" y1="84.369" x2="36.403" y2="7.454"/>
				
					<line fill="none" stroke="#585859" stroke-width="0.1" stroke-miterlimit="10" x1="113.319" y1="87.928" x2="36.403" y2="11.01"/>
				
					<line fill="none" stroke="#585859" stroke-width="0.1" stroke-miterlimit="10" x1="113.319" y1="91.482" x2="36.403" y2="14.567"/>
				
					<line fill="none" stroke="#585859" stroke-width="0.1" stroke-miterlimit="10" x1="113.319" y1="95.039" x2="36.403" y2="18.123"/>
				
					<line fill="none" stroke="#585859" stroke-width="0.1" stroke-miterlimit="10" x1="113.319" y1="98.595" x2="36.403" y2="21.679"/>
				
					<line fill="none" stroke="#585859" stroke-width="0.1" stroke-miterlimit="10" x1="113.319" y1="102.15" x2="36.403" y2="25.234"/>
				
					<line fill="none" stroke="#585859" stroke-width="0.1" stroke-miterlimit="10" x1="113.319" y1="105.706" x2="36.403" y2="28.791"/>
				
					<line fill="none" stroke="#585859" stroke-width="0.1" stroke-miterlimit="10" x1="113.319" y1="109.264" x2="36.403" y2="32.347"/>
				
					<line fill="none" stroke="#585859" stroke-width="0.1" stroke-miterlimit="10" x1="113.319" y1="112.818" x2="36.403" y2="35.902"/>
				
					<line fill="none" stroke="#585859" stroke-width="0.1" stroke-miterlimit="10" x1="113.319" y1="116.375" x2="36.403" y2="39.458"/>
				
					<line fill="none" stroke="#585859" stroke-width="0.1" stroke-miterlimit="10" x1="113.319" y1="119.932" x2="36.403" y2="43.015"/>
				
					<line fill="none" stroke="#585859" stroke-width="0.1" stroke-miterlimit="10" x1="113.319" y1="123.488" x2="36.403" y2="46.571"/>
				
					<line fill="none" stroke="#585859" stroke-width="0.1" stroke-miterlimit="10" x1="113.319" y1="127.042" x2="36.403" y2="50.127"/>
				
					<line fill="none" stroke="#585859" stroke-width="0.1" stroke-miterlimit="10" x1="113.319" y1="130.6" x2="36.403" y2="53.683"/>
				
					<line fill="none" stroke="#585859" stroke-width="0.1" stroke-miterlimit="10" x1="113.319" y1="134.155" x2="36.403" y2="57.239"/>
				
					<line fill="none" stroke="#585859" stroke-width="0.1" stroke-miterlimit="10" x1="113.319" y1="137.711" x2="36.403" y2="60.794"/>
				
					<line fill="none" stroke="#585859" stroke-width="0.1" stroke-miterlimit="10" x1="113.319" y1="141.267" x2="36.403" y2="64.351"/>
				
					<line fill="none" stroke="#585859" stroke-width="0.1" stroke-miterlimit="10" x1="113.319" y1="144.823" x2="36.403" y2="67.907"/>
			</g>
		</g>
	</g>
	<g>
		<path fill="none" stroke="#585859" stroke-miterlimit="10" d="M76.875,86.994c0,0.961-0.779,1.74-1.741,1.74H24.865
			c-0.961,0-1.74-0.779-1.74-1.74V13.006c0-0.961,0.779-1.74,1.74-1.74h50.269c0.962,0,1.741,0.779,1.741,1.74V86.994z"/>
		<g>
			<line fill="none" stroke="#585859" stroke-miterlimit="10" x1="28.032" y1="31.79" x2="54.25" y2="31.79"/>
			<g>
				<line fill="none" stroke="#585859" stroke-width="2" stroke-miterlimit="10" x1="28.032" y1="36.71" x2="54.25" y2="36.71"/>
				<line fill="none" stroke="#585859" stroke-width="2" stroke-miterlimit="10" x1="28.032" y1="41.21" x2="54.25" y2="41.21"/>
				<line fill="none" stroke="#585859" stroke-width="2" stroke-miterlimit="10" x1="28.032" y1="45.71" x2="54.25" y2="45.71"/>
				<line fill="none" stroke="#585859" stroke-width="2" stroke-miterlimit="10" x1="28.032" y1="50.21" x2="54.25" y2="50.21"/>
				<line fill="none" stroke="#585859" stroke-width="2" stroke-miterlimit="10" x1="28.032" y1="54.71" x2="54.25" y2="54.71"/>
				<line fill="none" stroke="#585859" stroke-width="2" stroke-miterlimit="10" x1="28.032" y1="59.21" x2="54.25" y2="59.21"/>
				<line fill="none" stroke="#585859" stroke-width="2" stroke-miterlimit="10" x1="28.032" y1="63.71" x2="54.25" y2="63.71"/>
				<line fill="none" stroke="#585859" stroke-width="2" stroke-miterlimit="10" x1="28.032" y1="68.21" x2="54.25" y2="68.21"/>
				<line fill="none" stroke="#585859" stroke-width="3" stroke-miterlimit="10" x1="28.032" y1="32.21" x2="54.25" y2="32.21"/>
			</g>
		</g>
		<rect x="26.204" y="15.564" fill="none" stroke="#585859" stroke-miterlimit="10" width="48.092" height="11.098"/>
		<rect x="26.204" y="73.843" fill="none" stroke="#585859" stroke-miterlimit="10" width="48.092" height="11.098"/>
		<g>
			<defs>
				<rect id="SVGID_3_" x="26.204" y="15.564" width="48.092" height="11.098"/>
			</defs>
			<clipPath id="SVGID_4_">
				<use xlink:href="#SVGID_3_"  overflow="visible"/>
			</clipPath>
			<g clip-path="url(#SVGID_4_)">
				
					<line fill="none" stroke="#585859" stroke-width="0.75" stroke-miterlimit="10" x1="19.941" y1="-6.347" x2="-56.975" y2="70.569"/>
				
					<line fill="none" stroke="#585859" stroke-width="0.75" stroke-miterlimit="10" x1="23.497" y1="-6.347" x2="-53.418" y2="70.569"/>
				
					<line fill="none" stroke="#585859" stroke-width="0.75" stroke-miterlimit="10" x1="27.053" y1="-6.347" x2="-49.863" y2="70.569"/>
				
					<line fill="none" stroke="#585859" stroke-width="0.75" stroke-miterlimit="10" x1="30.609" y1="-6.347" x2="-46.307" y2="70.569"/>
				
					<line fill="none" stroke="#585859" stroke-width="0.75" stroke-miterlimit="10" x1="34.164" y1="-6.347" x2="-42.75" y2="70.569"/>
				
					<line fill="none" stroke="#585859" stroke-width="0.75" stroke-miterlimit="10" x1="37.721" y1="-6.347" x2="-39.195" y2="70.569"/>
				
					<line fill="none" stroke="#585859" stroke-width="0.75" stroke-miterlimit="10" x1="41.277" y1="-6.347" x2="-35.639" y2="70.569"/>
				
					<line fill="none" stroke="#585859" stroke-width="0.75" stroke-miterlimit="10" x1="44.833" y1="-6.347" x2="-32.082" y2="70.569"/>
				
					<line fill="none" stroke="#585859" stroke-width="0.75" stroke-miterlimit="10" x1="48.389" y1="-6.347" x2="-28.526" y2="70.569"/>
				
					<line fill="none" stroke="#585859" stroke-width="0.75" stroke-miterlimit="10" x1="51.945" y1="-6.347" x2="-24.971" y2="70.569"/>
				
					<line fill="none" stroke="#585859" stroke-width="0.75" stroke-miterlimit="10" x1="55.589" y1="-6.347" x2="-21.327" y2="70.569"/>
				
					<line fill="none" stroke="#585859" stroke-width="0.75" stroke-miterlimit="10" x1="59.146" y1="-6.347" x2="-17.771" y2="70.569"/>
				
					<line fill="none" stroke="#585859" stroke-width="0.75" stroke-miterlimit="10" x1="62.7" y1="-6.347" x2="-14.216" y2="70.569"/>
				
					<line fill="none" stroke="#585859" stroke-width="0.75" stroke-miterlimit="10" x1="66.684" y1="-6.347" x2="-10.232" y2="70.569"/>
				
					<line fill="none" stroke="#585859" stroke-width="0.75" stroke-miterlimit="10" x1="70.239" y1="-6.347" x2="-6.676" y2="70.569"/>
				
					<line fill="none" stroke="#585859" stroke-width="0.75" stroke-miterlimit="10" x1="73.797" y1="-6.347" x2="-3.12" y2="70.569"/>
				
					<line fill="none" stroke="#585859" stroke-width="0.75" stroke-miterlimit="10" x1="77.351" y1="-6.347" x2="0.436" y2="70.569"/>
				
					<line fill="none" stroke="#585859" stroke-width="0.75" stroke-miterlimit="10" x1="80.909" y1="-6.347" x2="3.991" y2="70.569"/>
				
					<line fill="none" stroke="#585859" stroke-width="0.75" stroke-miterlimit="10" x1="84.464" y1="-6.347" x2="7.549" y2="70.569"/>
				
					<line fill="none" stroke="#585859" stroke-width="0.75" stroke-miterlimit="10" x1="88.021" y1="-6.347" x2="11.104" y2="70.569"/>
				
					<line fill="none" stroke="#585859" stroke-width="0.75" stroke-miterlimit="10" x1="91.576" y1="-6.347" x2="14.66" y2="70.569"/>
				
					<line fill="none" stroke="#585859" stroke-width="0.75" stroke-miterlimit="10" x1="95.132" y1="-6.347" x2="18.216" y2="70.569"/>
				
					<line fill="none" stroke="#585859" stroke-width="0.75" stroke-miterlimit="10" x1="98.688" y1="-6.347" x2="21.772" y2="70.569"/>
				
					<line fill="none" stroke="#585859" stroke-width="0.75" stroke-miterlimit="10" x1="102.245" y1="-6.347" x2="25.328" y2="70.569"/>
				
					<line fill="none" stroke="#585859" stroke-width="0.75" stroke-miterlimit="10" x1="105.8" y1="-6.347" x2="28.884" y2="70.569"/>
				
					<line fill="none" stroke="#585859" stroke-width="0.75" stroke-miterlimit="10" x1="109.356" y1="-6.347" x2="32.439" y2="70.569"/>
				
					<line fill="none" stroke="#585859" stroke-width="0.75" stroke-miterlimit="10" x1="112.913" y1="-6.347" x2="35.996" y2="70.569"/>
				
					<line fill="none" stroke="#585859" stroke-width="0.75" stroke-miterlimit="10" x1="116.47" y1="-6.347" x2="39.553" y2="70.569"/>
				
					<line fill="none" stroke="#585859" stroke-width="0.75" stroke-miterlimit="10" x1="120.023" y1="-6.347" x2="43.108" y2="70.569"/>
				
					<line fill="none" stroke="#585859" stroke-width="0.75" stroke-miterlimit="10" x1="123.581" y1="-6.347" x2="46.664" y2="70.569"/>
				
					<line fill="none" stroke="#585859" stroke-width="0.75" stroke-miterlimit="10" x1="127.137" y1="-6.347" x2="50.221" y2="70.569"/>
				
					<line fill="none" stroke="#585859" stroke-width="0.75" stroke-miterlimit="10" x1="130.692" y1="-6.347" x2="53.775" y2="70.569"/>
				
					<line fill="none" stroke="#585859" stroke-width="0.75" stroke-miterlimit="10" x1="134.248" y1="-6.347" x2="57.332" y2="70.569"/>
				
					<line fill="none" stroke="#585859" stroke-width="0.75" stroke-miterlimit="10" x1="137.805" y1="-6.347" x2="60.889" y2="70.569"/>
			</g>
		</g>
		<g>
			<defs>
				<rect id="SVGID_5_" x="26.204" y="74.23" width="48.092" height="11.099"/>
			</defs>
			<clipPath id="SVGID_6_">
				<use xlink:href="#SVGID_5_"  overflow="visible"/>
			</clipPath>
			<g clip-path="url(#SVGID_6_)">
				
					<line fill="none" stroke="#585859" stroke-width="0.75" stroke-miterlimit="10" x1="19.941" y1="52.32" x2="-56.975" y2="129.236"/>
				
					<line fill="none" stroke="#585859" stroke-width="0.75" stroke-miterlimit="10" x1="23.497" y1="52.32" x2="-53.418" y2="129.236"/>
				
					<line fill="none" stroke="#585859" stroke-width="0.75" stroke-miterlimit="10" x1="27.053" y1="52.32" x2="-49.863" y2="129.236"/>
				
					<line fill="none" stroke="#585859" stroke-width="0.75" stroke-miterlimit="10" x1="30.609" y1="52.32" x2="-46.307" y2="129.236"/>
				
					<line fill="none" stroke="#585859" stroke-width="0.75" stroke-miterlimit="10" x1="34.164" y1="52.32" x2="-42.75" y2="129.236"/>
				
					<line fill="none" stroke="#585859" stroke-width="0.75" stroke-miterlimit="10" x1="37.721" y1="52.32" x2="-39.195" y2="129.236"/>
				
					<line fill="none" stroke="#585859" stroke-width="0.75" stroke-miterlimit="10" x1="41.277" y1="52.32" x2="-35.639" y2="129.236"/>
				
					<line fill="none" stroke="#585859" stroke-width="0.75" stroke-miterlimit="10" x1="44.833" y1="52.32" x2="-32.082" y2="129.236"/>
				
					<line fill="none" stroke="#585859" stroke-width="0.75" stroke-miterlimit="10" x1="48.389" y1="52.32" x2="-28.526" y2="129.236"/>
				
					<line fill="none" stroke="#585859" stroke-width="0.75" stroke-miterlimit="10" x1="51.945" y1="52.32" x2="-24.971" y2="129.236"/>
				
					<line fill="none" stroke="#585859" stroke-width="0.75" stroke-miterlimit="10" x1="55.589" y1="52.32" x2="-21.327" y2="129.236"/>
				
					<line fill="none" stroke="#585859" stroke-width="0.75" stroke-miterlimit="10" x1="59.146" y1="52.32" x2="-17.771" y2="129.236"/>
				
					<line fill="none" stroke="#585859" stroke-width="0.75" stroke-miterlimit="10" x1="62.7" y1="52.32" x2="-14.216" y2="129.236"/>
				
					<line fill="none" stroke="#585859" stroke-width="0.75" stroke-miterlimit="10" x1="66.684" y1="52.32" x2="-10.232" y2="129.236"/>
				
					<line fill="none" stroke="#585859" stroke-width="0.75" stroke-miterlimit="10" x1="70.239" y1="52.32" x2="-6.676" y2="129.236"/>
				
					<line fill="none" stroke="#585859" stroke-width="0.75" stroke-miterlimit="10" x1="73.797" y1="52.32" x2="-3.12" y2="129.236"/>
				
					<line fill="none" stroke="#585859" stroke-width="0.75" stroke-miterlimit="10" x1="77.351" y1="52.32" x2="0.436" y2="129.236"/>
				
					<line fill="none" stroke="#585859" stroke-width="0.75" stroke-miterlimit="10" x1="80.909" y1="52.32" x2="3.991" y2="129.236"/>
				
					<line fill="none" stroke="#585859" stroke-width="0.75" stroke-miterlimit="10" x1="84.464" y1="52.32" x2="7.549" y2="129.236"/>
				
					<line fill="none" stroke="#585859" stroke-width="0.75" stroke-miterlimit="10" x1="88.021" y1="52.32" x2="11.104" y2="129.236"/>
				
					<line fill="none" stroke="#585859" stroke-width="0.75" stroke-miterlimit="10" x1="91.576" y1="52.32" x2="14.66" y2="129.236"/>
				
					<line fill="none" stroke="#585859" stroke-width="0.75" stroke-miterlimit="10" x1="95.132" y1="52.32" x2="18.216" y2="129.236"/>
				
					<line fill="none" stroke="#585859" stroke-width="0.75" stroke-miterlimit="10" x1="98.688" y1="52.32" x2="21.772" y2="129.236"/>
				
					<line fill="none" stroke="#585859" stroke-width="0.75" stroke-miterlimit="10" x1="102.245" y1="52.32" x2="25.328" y2="129.236"/>
				
					<line fill="none" stroke="#585859" stroke-width="0.75" stroke-miterlimit="10" x1="105.8" y1="52.32" x2="28.884" y2="129.236"/>
				
					<line fill="none" stroke="#585859" stroke-width="0.75" stroke-miterlimit="10" x1="109.356" y1="52.32" x2="32.439" y2="129.236"/>
				
					<line fill="none" stroke="#585859" stroke-width="0.75" stroke-miterlimit="10" x1="112.913" y1="52.32" x2="35.996" y2="129.236"/>
				
					<line fill="none" stroke="#585859" stroke-width="0.75" stroke-miterlimit="10" x1="116.47" y1="52.32" x2="39.553" y2="129.236"/>
				
					<line fill="none" stroke="#585859" stroke-width="0.75" stroke-miterlimit="10" x1="120.023" y1="52.32" x2="43.108" y2="129.236"/>
				
					<line fill="none" stroke="#585859" stroke-width="0.75" stroke-miterlimit="10" x1="123.581" y1="52.32" x2="46.664" y2="129.236"/>
				
					<line fill="none" stroke="#585859" stroke-width="0.75" stroke-miterlimit="10" x1="127.137" y1="52.32" x2="50.221" y2="129.236"/>
				
					<line fill="none" stroke="#585859" stroke-width="0.75" stroke-miterlimit="10" x1="130.692" y1="52.32" x2="53.775" y2="129.236"/>
				
					<line fill="none" stroke="#585859" stroke-width="0.75" stroke-miterlimit="10" x1="134.248" y1="52.32" x2="57.332" y2="129.236"/>
				
					<line fill="none" stroke="#585859" stroke-width="0.75" stroke-miterlimit="10" x1="137.805" y1="52.32" x2="60.889" y2="129.236"/>
			</g>
		</g>
		<rect x="58.031" y="30.662" fill="none" stroke="#585859" stroke-miterlimit="10" width="14.25" height="38.417"/>
	</g>
</g>
</svg>
