<?xml version="1.0" encoding="utf-8"?>
<!-- Generator: Adobe Illustrator 15.1.0, SVG Export Plug-In . SVG Version: 6.00 Build 0)  -->
<!DOCTYPE svg PUBLIC "-//W3C//DTD SVG 1.1//EN" "http://www.w3.org/Graphics/SVG/1.1/DTD/svg11.dtd">
<svg version="1.1" id="Layer_1" xmlns="http://www.w3.org/2000/svg" xmlns:xlink="http://www.w3.org/1999/xlink" x="0px" y="0px"
	 width="100px" height="100px" viewBox="0 0 100 100" enable-background="new 0 0 100 100" xml:space="preserve">
<g>
	<g>
		<g>
			<path fill="none" stroke="#585859" stroke-miterlimit="10" d="M76.875,86.994c0,0.961-0.779,1.74-1.741,1.74H24.865
				c-0.961,0-1.74-0.779-1.74-1.74V13.006c0-0.961,0.779-1.74,1.74-1.74h50.269c0.962,0,1.741,0.779,1.741,1.74V86.994z"/>
			<g>
				<g>
					<line fill="none" stroke="#585859" stroke-width="3" stroke-miterlimit="10" x1="28.032" y1="49.21" x2="53.75" y2="49.21"/>
					<line fill="none" stroke="#585859" stroke-width="2" stroke-miterlimit="10" x1="28.032" y1="53.71" x2="53.75" y2="53.71"/>
					<line fill="none" stroke="#585859" stroke-width="2" stroke-miterlimit="10" x1="28.032" y1="58.21" x2="53.75" y2="58.21"/>
				</g>
			</g>
			<rect x="26.204" y="15.564" fill="none" stroke="#585859" stroke-miterlimit="10" width="48.092" height="11.098"/>
			<rect x="26.204" y="73.843" fill="none" stroke="#585859" stroke-miterlimit="10" width="48.092" height="11.098"/>
			<g>
				<defs>
					<rect id="SVGID_1_" x="26.204" y="15.564" width="48.092" height="11.098"/>
				</defs>
				<clipPath id="SVGID_2_">
					<use xlink:href="#SVGID_1_"  overflow="visible"/>
				</clipPath>
				<g clip-path="url(#SVGID_2_)">
					
						<line fill="none" stroke="#585859" stroke-width="0.75" stroke-miterlimit="10" x1="19.941" y1="-6.347" x2="-56.975" y2="70.569"/>
					
						<line fill="none" stroke="#585859" stroke-width="0.75" stroke-miterlimit="10" x1="23.497" y1="-6.347" x2="-53.418" y2="70.569"/>
					
						<line fill="none" stroke="#585859" stroke-width="0.75" stroke-miterlimit="10" x1="27.053" y1="-6.347" x2="-49.863" y2="70.569"/>
					
						<line fill="none" stroke="#585859" stroke-width="0.75" stroke-miterlimit="10" x1="30.609" y1="-6.347" x2="-46.307" y2="70.569"/>
					
						<line fill="none" stroke="#585859" stroke-width="0.75" stroke-miterlimit="10" x1="34.164" y1="-6.347" x2="-42.75" y2="70.569"/>
					
						<line fill="none" stroke="#585859" stroke-width="0.75" stroke-miterlimit="10" x1="37.721" y1="-6.347" x2="-39.195" y2="70.569"/>
					
						<line fill="none" stroke="#585859" stroke-width="0.75" stroke-miterlimit="10" x1="41.277" y1="-6.347" x2="-35.639" y2="70.569"/>
					
						<line fill="none" stroke="#585859" stroke-width="0.75" stroke-miterlimit="10" x1="44.833" y1="-6.347" x2="-32.082" y2="70.569"/>
					
						<line fill="none" stroke="#585859" stroke-width="0.75" stroke-miterlimit="10" x1="48.389" y1="-6.347" x2="-28.526" y2="70.569"/>
					
						<line fill="none" stroke="#585859" stroke-width="0.75" stroke-miterlimit="10" x1="51.945" y1="-6.347" x2="-24.971" y2="70.569"/>
					
						<line fill="none" stroke="#585859" stroke-width="0.75" stroke-miterlimit="10" x1="55.589" y1="-6.347" x2="-21.327" y2="70.569"/>
					
						<line fill="none" stroke="#585859" stroke-width="0.75" stroke-miterlimit="10" x1="59.146" y1="-6.347" x2="-17.771" y2="70.569"/>
					
						<line fill="none" stroke="#585859" stroke-width="0.75" stroke-miterlimit="10" x1="62.7" y1="-6.347" x2="-14.216" y2="70.569"/>
					
						<line fill="none" stroke="#585859" stroke-width="0.75" stroke-miterlimit="10" x1="66.684" y1="-6.347" x2="-10.232" y2="70.569"/>
					
						<line fill="none" stroke="#585859" stroke-width="0.75" stroke-miterlimit="10" x1="70.239" y1="-6.347" x2="-6.676" y2="70.569"/>
					
						<line fill="none" stroke="#585859" stroke-width="0.75" stroke-miterlimit="10" x1="73.797" y1="-6.347" x2="-3.12" y2="70.569"/>
					
						<line fill="none" stroke="#585859" stroke-width="0.75" stroke-miterlimit="10" x1="77.351" y1="-6.347" x2="0.436" y2="70.569"/>
					
						<line fill="none" stroke="#585859" stroke-width="0.75" stroke-miterlimit="10" x1="80.909" y1="-6.347" x2="3.991" y2="70.569"/>
					
						<line fill="none" stroke="#585859" stroke-width="0.75" stroke-miterlimit="10" x1="84.464" y1="-6.347" x2="7.549" y2="70.569"/>
					
						<line fill="none" stroke="#585859" stroke-width="0.75" stroke-miterlimit="10" x1="88.021" y1="-6.347" x2="11.104" y2="70.569"/>
					
						<line fill="none" stroke="#585859" stroke-width="0.75" stroke-miterlimit="10" x1="91.576" y1="-6.347" x2="14.66" y2="70.569"/>
					
						<line fill="none" stroke="#585859" stroke-width="0.75" stroke-miterlimit="10" x1="95.132" y1="-6.347" x2="18.216" y2="70.569"/>
					
						<line fill="none" stroke="#585859" stroke-width="0.75" stroke-miterlimit="10" x1="98.688" y1="-6.347" x2="21.772" y2="70.569"/>
					
						<line fill="none" stroke="#585859" stroke-width="0.75" stroke-miterlimit="10" x1="102.245" y1="-6.347" x2="25.328" y2="70.569"/>
					
						<line fill="none" stroke="#585859" stroke-width="0.75" stroke-miterlimit="10" x1="105.8" y1="-6.347" x2="28.884" y2="70.569"/>
					
						<line fill="none" stroke="#585859" stroke-width="0.75" stroke-miterlimit="10" x1="109.356" y1="-6.347" x2="32.439" y2="70.569"/>
					
						<line fill="none" stroke="#585859" stroke-width="0.75" stroke-miterlimit="10" x1="112.913" y1="-6.347" x2="35.996" y2="70.569"/>
					
						<line fill="none" stroke="#585859" stroke-width="0.75" stroke-miterlimit="10" x1="116.47" y1="-6.347" x2="39.553" y2="70.569"/>
					
						<line fill="none" stroke="#585859" stroke-width="0.75" stroke-miterlimit="10" x1="120.023" y1="-6.347" x2="43.108" y2="70.569"/>
					
						<line fill="none" stroke="#585859" stroke-width="0.75" stroke-miterlimit="10" x1="123.581" y1="-6.347" x2="46.664" y2="70.569"/>
					
						<line fill="none" stroke="#585859" stroke-width="0.75" stroke-miterlimit="10" x1="127.137" y1="-6.347" x2="50.221" y2="70.569"/>
					
						<line fill="none" stroke="#585859" stroke-width="0.75" stroke-miterlimit="10" x1="130.692" y1="-6.347" x2="53.775" y2="70.569"/>
					
						<line fill="none" stroke="#585859" stroke-width="0.75" stroke-miterlimit="10" x1="134.248" y1="-6.347" x2="57.332" y2="70.569"/>
					
						<line fill="none" stroke="#585859" stroke-width="0.75" stroke-miterlimit="10" x1="137.805" y1="-6.347" x2="60.889" y2="70.569"/>
				</g>
			</g>
			<g>
				<defs>
					<rect id="SVGID_3_" x="26.204" y="74.23" width="48.092" height="11.099"/>
				</defs>
				<clipPath id="SVGID_4_">
					<use xlink:href="#SVGID_3_"  overflow="visible"/>
				</clipPath>
				<g clip-path="url(#SVGID_4_)">
					
						<line fill="none" stroke="#585859" stroke-width="0.75" stroke-miterlimit="10" x1="19.941" y1="52.32" x2="-56.975" y2="129.236"/>
					
						<line fill="none" stroke="#585859" stroke-width="0.75" stroke-miterlimit="10" x1="23.497" y1="52.32" x2="-53.418" y2="129.236"/>
					
						<line fill="none" stroke="#585859" stroke-width="0.75" stroke-miterlimit="10" x1="27.053" y1="52.32" x2="-49.863" y2="129.236"/>
					
						<line fill="none" stroke="#585859" stroke-width="0.75" stroke-miterlimit="10" x1="30.609" y1="52.32" x2="-46.307" y2="129.236"/>
					
						<line fill="none" stroke="#585859" stroke-width="0.75" stroke-miterlimit="10" x1="34.164" y1="52.32" x2="-42.75" y2="129.236"/>
					
						<line fill="none" stroke="#585859" stroke-width="0.75" stroke-miterlimit="10" x1="37.721" y1="52.32" x2="-39.195" y2="129.236"/>
					
						<line fill="none" stroke="#585859" stroke-width="0.75" stroke-miterlimit="10" x1="41.277" y1="52.32" x2="-35.639" y2="129.236"/>
					
						<line fill="none" stroke="#585859" stroke-width="0.75" stroke-miterlimit="10" x1="44.833" y1="52.32" x2="-32.082" y2="129.236"/>
					
						<line fill="none" stroke="#585859" stroke-width="0.75" stroke-miterlimit="10" x1="48.389" y1="52.32" x2="-28.526" y2="129.236"/>
					
						<line fill="none" stroke="#585859" stroke-width="0.75" stroke-miterlimit="10" x1="51.945" y1="52.32" x2="-24.971" y2="129.236"/>
					
						<line fill="none" stroke="#585859" stroke-width="0.75" stroke-miterlimit="10" x1="55.589" y1="52.32" x2="-21.327" y2="129.236"/>
					
						<line fill="none" stroke="#585859" stroke-width="0.75" stroke-miterlimit="10" x1="59.146" y1="52.32" x2="-17.771" y2="129.236"/>
					
						<line fill="none" stroke="#585859" stroke-width="0.75" stroke-miterlimit="10" x1="62.7" y1="52.32" x2="-14.216" y2="129.236"/>
					
						<line fill="none" stroke="#585859" stroke-width="0.75" stroke-miterlimit="10" x1="66.684" y1="52.32" x2="-10.232" y2="129.236"/>
					
						<line fill="none" stroke="#585859" stroke-width="0.75" stroke-miterlimit="10" x1="70.239" y1="52.32" x2="-6.676" y2="129.236"/>
					
						<line fill="none" stroke="#585859" stroke-width="0.75" stroke-miterlimit="10" x1="73.797" y1="52.32" x2="-3.12" y2="129.236"/>
					
						<line fill="none" stroke="#585859" stroke-width="0.75" stroke-miterlimit="10" x1="77.351" y1="52.32" x2="0.436" y2="129.236"/>
					
						<line fill="none" stroke="#585859" stroke-width="0.75" stroke-miterlimit="10" x1="80.909" y1="52.32" x2="3.991" y2="129.236"/>
					
						<line fill="none" stroke="#585859" stroke-width="0.75" stroke-miterlimit="10" x1="84.464" y1="52.32" x2="7.549" y2="129.236"/>
					
						<line fill="none" stroke="#585859" stroke-width="0.75" stroke-miterlimit="10" x1="88.021" y1="52.32" x2="11.104" y2="129.236"/>
					
						<line fill="none" stroke="#585859" stroke-width="0.75" stroke-miterlimit="10" x1="91.576" y1="52.32" x2="14.66" y2="129.236"/>
					
						<line fill="none" stroke="#585859" stroke-width="0.75" stroke-miterlimit="10" x1="95.132" y1="52.32" x2="18.216" y2="129.236"/>
					
						<line fill="none" stroke="#585859" stroke-width="0.75" stroke-miterlimit="10" x1="98.688" y1="52.32" x2="21.772" y2="129.236"/>
					
						<line fill="none" stroke="#585859" stroke-width="0.75" stroke-miterlimit="10" x1="102.245" y1="52.32" x2="25.328" y2="129.236"/>
					
						<line fill="none" stroke="#585859" stroke-width="0.75" stroke-miterlimit="10" x1="105.8" y1="52.32" x2="28.884" y2="129.236"/>
					
						<line fill="none" stroke="#585859" stroke-width="0.75" stroke-miterlimit="10" x1="109.356" y1="52.32" x2="32.439" y2="129.236"/>
					
						<line fill="none" stroke="#585859" stroke-width="0.75" stroke-miterlimit="10" x1="112.913" y1="52.32" x2="35.996" y2="129.236"/>
					
						<line fill="none" stroke="#585859" stroke-width="0.75" stroke-miterlimit="10" x1="116.47" y1="52.32" x2="39.553" y2="129.236"/>
					
						<line fill="none" stroke="#585859" stroke-width="0.75" stroke-miterlimit="10" x1="120.023" y1="52.32" x2="43.108" y2="129.236"/>
					
						<line fill="none" stroke="#585859" stroke-width="0.75" stroke-miterlimit="10" x1="123.581" y1="52.32" x2="46.664" y2="129.236"/>
					
						<line fill="none" stroke="#585859" stroke-width="0.75" stroke-miterlimit="10" x1="127.137" y1="52.32" x2="50.221" y2="129.236"/>
					
						<line fill="none" stroke="#585859" stroke-width="0.75" stroke-miterlimit="10" x1="130.692" y1="52.32" x2="53.775" y2="129.236"/>
					
						<line fill="none" stroke="#585859" stroke-width="0.75" stroke-miterlimit="10" x1="134.248" y1="52.32" x2="57.332" y2="129.236"/>
					
						<line fill="none" stroke="#585859" stroke-width="0.75" stroke-miterlimit="10" x1="137.805" y1="52.32" x2="60.889" y2="129.236"/>
				</g>
			</g>
			<rect x="58.031" y="30.329" fill="none" stroke="#585859" stroke-miterlimit="10" width="14.25" height="39.25"/>
			<g>
				<path fill="#585859" d="M52.962,31.319l0.035,13.167h-24l-0.035-13.167H52.962 M53.959,30.319h-26L28,45.486h26L53.959,30.319
					L53.959,30.319z"/>
			</g>
			<line fill="none" stroke="#585859" stroke-miterlimit="10" x1="28.5" y1="30.986" x2="53.5" y2="44.486"/>
			<line fill="none" stroke="#585859" stroke-miterlimit="10" x1="53.75" y1="30.986" x2="28.25" y2="44.486"/>
		</g>
		<g>
			<path fill="#585859" d="M53.395,62.986l0.019,5.928H29.146l-0.019-5.928H53.395 M54.392,61.986H28.125l0.024,7.928h26.267
				L54.392,61.986L54.392,61.986z"/>
		</g>
	</g>
	<g>
		<defs>
			<rect id="SVGID_5_" x="57.531" y="30.496" width="14.25" height="38.75"/>
		</defs>
		<clipPath id="SVGID_6_">
			<use xlink:href="#SVGID_5_"  overflow="visible"/>
		</clipPath>
		<g clip-path="url(#SVGID_6_)">
			<g>
				
					<line fill="none" stroke="#585859" stroke-width="0.1" stroke-miterlimit="10" x1="45.777" y1="5.362" x2="-31.139" y2="82.278"/>
				
					<line fill="none" stroke="#585859" stroke-width="0.1" stroke-miterlimit="10" x1="49.333" y1="5.362" x2="-27.582" y2="82.278"/>
				
					<line fill="none" stroke="#585859" stroke-width="0.1" stroke-miterlimit="10" x1="52.889" y1="5.362" x2="-24.027" y2="82.278"/>
				
					<line fill="none" stroke="#585859" stroke-width="0.1" stroke-miterlimit="10" x1="56.445" y1="5.362" x2="-20.471" y2="82.278"/>
				<line fill="none" stroke="#585859" stroke-width="0.1" stroke-miterlimit="10" x1="60" y1="5.362" x2="-16.914" y2="82.278"/>
				
					<line fill="none" stroke="#585859" stroke-width="0.1" stroke-miterlimit="10" x1="63.557" y1="5.362" x2="-13.359" y2="82.278"/>
				
					<line fill="none" stroke="#585859" stroke-width="0.1" stroke-miterlimit="10" x1="67.113" y1="5.362" x2="-9.803" y2="82.278"/>
				
					<line fill="none" stroke="#585859" stroke-width="0.1" stroke-miterlimit="10" x1="70.669" y1="5.362" x2="-6.246" y2="82.278"/>
				<line fill="none" stroke="#585859" stroke-width="0.1" stroke-miterlimit="10" x1="74.225" y1="5.362" x2="-2.69" y2="82.278"/>
				<line fill="none" stroke="#585859" stroke-width="0.1" stroke-miterlimit="10" x1="77.781" y1="5.362" x2="0.865" y2="82.278"/>
				<line fill="none" stroke="#585859" stroke-width="0.1" stroke-miterlimit="10" x1="81.425" y1="5.362" x2="4.509" y2="82.278"/>
				<line fill="none" stroke="#585859" stroke-width="0.1" stroke-miterlimit="10" x1="84.982" y1="5.362" x2="8.064" y2="82.278"/>
				<line fill="none" stroke="#585859" stroke-width="0.1" stroke-miterlimit="10" x1="88.536" y1="5.362" x2="11.62" y2="82.278"/>
				<line fill="none" stroke="#585859" stroke-width="0.1" stroke-miterlimit="10" x1="92.52" y1="5.362" x2="15.604" y2="82.278"/>
				<line fill="none" stroke="#585859" stroke-width="0.1" stroke-miterlimit="10" x1="96.075" y1="5.362" x2="19.16" y2="82.278"/>
				
					<line fill="none" stroke="#585859" stroke-width="0.1" stroke-miterlimit="10" x1="99.633" y1="5.362" x2="22.716" y2="82.278"/>
				
					<line fill="none" stroke="#585859" stroke-width="0.1" stroke-miterlimit="10" x1="103.187" y1="5.362" x2="26.271" y2="82.278"/>
				
					<line fill="none" stroke="#585859" stroke-width="0.1" stroke-miterlimit="10" x1="106.745" y1="5.362" x2="29.827" y2="82.278"/>
				<line fill="none" stroke="#585859" stroke-width="0.1" stroke-miterlimit="10" x1="110.3" y1="5.362" x2="33.385" y2="82.278"/>
				
					<line fill="none" stroke="#585859" stroke-width="0.1" stroke-miterlimit="10" x1="113.856" y1="5.362" x2="36.94" y2="82.278"/>
				
					<line fill="none" stroke="#585859" stroke-width="0.1" stroke-miterlimit="10" x1="117.412" y1="5.362" x2="40.496" y2="82.278"/>
				
					<line fill="none" stroke="#585859" stroke-width="0.1" stroke-miterlimit="10" x1="120.968" y1="5.362" x2="44.052" y2="82.278"/>
				
					<line fill="none" stroke="#585859" stroke-width="0.1" stroke-miterlimit="10" x1="124.523" y1="5.362" x2="47.608" y2="82.278"/>
				
					<line fill="none" stroke="#585859" stroke-width="0.1" stroke-miterlimit="10" x1="128.081" y1="5.362" x2="51.164" y2="82.278"/>
				
					<line fill="none" stroke="#585859" stroke-width="0.1" stroke-miterlimit="10" x1="131.636" y1="5.362" x2="54.72" y2="82.278"/>
				
					<line fill="none" stroke="#585859" stroke-width="0.1" stroke-miterlimit="10" x1="135.192" y1="5.362" x2="58.275" y2="82.278"/>
				
					<line fill="none" stroke="#585859" stroke-width="0.1" stroke-miterlimit="10" x1="138.749" y1="5.362" x2="61.832" y2="82.278"/>
				
					<line fill="none" stroke="#585859" stroke-width="0.1" stroke-miterlimit="10" x1="142.306" y1="5.362" x2="65.389" y2="82.278"/>
				
					<line fill="none" stroke="#585859" stroke-width="0.1" stroke-miterlimit="10" x1="145.859" y1="5.362" x2="68.944" y2="82.278"/>
				<line fill="none" stroke="#585859" stroke-width="0.1" stroke-miterlimit="10" x1="149.417" y1="5.362" x2="72.5" y2="82.278"/>
				
					<line fill="none" stroke="#585859" stroke-width="0.1" stroke-miterlimit="10" x1="152.973" y1="5.362" x2="76.057" y2="82.278"/>
				
					<line fill="none" stroke="#585859" stroke-width="0.1" stroke-miterlimit="10" x1="156.528" y1="5.362" x2="79.611" y2="82.278"/>
				
					<line fill="none" stroke="#585859" stroke-width="0.1" stroke-miterlimit="10" x1="160.084" y1="5.362" x2="83.168" y2="82.278"/>
				
					<line fill="none" stroke="#585859" stroke-width="0.1" stroke-miterlimit="10" x1="163.641" y1="5.362" x2="86.725" y2="82.278"/>
			</g>
			<g>
				
					<line fill="none" stroke="#585859" stroke-width="0.1" stroke-miterlimit="10" x1="104.709" y1="23.347" x2="27.793" y2="-53.569"/>
				
					<line fill="none" stroke="#585859" stroke-width="0.1" stroke-miterlimit="10" x1="104.709" y1="26.902" x2="27.793" y2="-50.013"/>
				
					<line fill="none" stroke="#585859" stroke-width="0.1" stroke-miterlimit="10" x1="104.709" y1="30.458" x2="27.793" y2="-46.458"/>
				
					<line fill="none" stroke="#585859" stroke-width="0.1" stroke-miterlimit="10" x1="104.709" y1="34.015" x2="27.793" y2="-42.901"/>
				
					<line fill="none" stroke="#585859" stroke-width="0.1" stroke-miterlimit="10" x1="104.709" y1="37.569" x2="27.793" y2="-39.345"/>
				
					<line fill="none" stroke="#585859" stroke-width="0.1" stroke-miterlimit="10" x1="104.709" y1="41.126" x2="27.793" y2="-35.79"/>
				
					<line fill="none" stroke="#585859" stroke-width="0.1" stroke-miterlimit="10" x1="104.709" y1="44.683" x2="27.793" y2="-32.233"/>
				
					<line fill="none" stroke="#585859" stroke-width="0.1" stroke-miterlimit="10" x1="104.709" y1="48.238" x2="27.793" y2="-28.677"/>
				
					<line fill="none" stroke="#585859" stroke-width="0.1" stroke-miterlimit="10" x1="104.709" y1="51.794" x2="27.793" y2="-25.121"/>
				
					<line fill="none" stroke="#585859" stroke-width="0.1" stroke-miterlimit="10" x1="104.709" y1="55.351" x2="27.793" y2="-21.565"/>
				
					<line fill="none" stroke="#585859" stroke-width="0.1" stroke-miterlimit="10" x1="104.709" y1="58.994" x2="27.793" y2="-17.922"/>
				
					<line fill="none" stroke="#585859" stroke-width="0.1" stroke-miterlimit="10" x1="104.709" y1="62.552" x2="27.793" y2="-14.366"/>
				
					<line fill="none" stroke="#585859" stroke-width="0.1" stroke-miterlimit="10" x1="104.709" y1="66.105" x2="27.793" y2="-10.811"/>
				
					<line fill="none" stroke="#585859" stroke-width="0.1" stroke-miterlimit="10" x1="104.709" y1="70.089" x2="27.793" y2="-6.827"/>
				
					<line fill="none" stroke="#585859" stroke-width="0.1" stroke-miterlimit="10" x1="104.709" y1="73.645" x2="27.793" y2="-3.271"/>
				
					<line fill="none" stroke="#585859" stroke-width="0.1" stroke-miterlimit="10" x1="104.709" y1="77.202" x2="27.793" y2="0.285"/>
				
					<line fill="none" stroke="#585859" stroke-width="0.1" stroke-miterlimit="10" x1="104.709" y1="80.756" x2="27.793" y2="3.841"/>
				
					<line fill="none" stroke="#585859" stroke-width="0.1" stroke-miterlimit="10" x1="104.709" y1="84.314" x2="27.793" y2="7.396"/>
				
					<line fill="none" stroke="#585859" stroke-width="0.1" stroke-miterlimit="10" x1="104.709" y1="87.869" x2="27.793" y2="10.954"/>
				
					<line fill="none" stroke="#585859" stroke-width="0.1" stroke-miterlimit="10" x1="104.709" y1="91.426" x2="27.793" y2="14.51"/>
				
					<line fill="none" stroke="#585859" stroke-width="0.1" stroke-miterlimit="10" x1="104.709" y1="94.981" x2="27.793" y2="18.065"/>
				
					<line fill="none" stroke="#585859" stroke-width="0.1" stroke-miterlimit="10" x1="104.709" y1="98.537" x2="27.793" y2="21.621"/>
				
					<line fill="none" stroke="#585859" stroke-width="0.1" stroke-miterlimit="10" x1="104.709" y1="102.093" x2="27.793" y2="25.178"/>
				
					<line fill="none" stroke="#585859" stroke-width="0.1" stroke-miterlimit="10" x1="104.709" y1="105.65" x2="27.793" y2="28.733"/>
				
					<line fill="none" stroke="#585859" stroke-width="0.1" stroke-miterlimit="10" x1="104.709" y1="109.205" x2="27.793" y2="32.289"/>
				
					<line fill="none" stroke="#585859" stroke-width="0.1" stroke-miterlimit="10" x1="104.709" y1="112.762" x2="27.793" y2="35.845"/>
				
					<line fill="none" stroke="#585859" stroke-width="0.1" stroke-miterlimit="10" x1="104.709" y1="116.318" x2="27.793" y2="39.401"/>
				
					<line fill="none" stroke="#585859" stroke-width="0.1" stroke-miterlimit="10" x1="104.709" y1="119.875" x2="27.793" y2="42.958"/>
				
					<line fill="none" stroke="#585859" stroke-width="0.1" stroke-miterlimit="10" x1="104.709" y1="123.429" x2="27.793" y2="46.514"/>
				
					<line fill="none" stroke="#585859" stroke-width="0.1" stroke-miterlimit="10" x1="104.709" y1="126.986" x2="27.793" y2="50.069"/>
				
					<line fill="none" stroke="#585859" stroke-width="0.1" stroke-miterlimit="10" x1="104.709" y1="130.542" x2="27.793" y2="53.626"/>
				
					<line fill="none" stroke="#585859" stroke-width="0.1" stroke-miterlimit="10" x1="104.709" y1="134.098" x2="27.793" y2="57.181"/>
				
					<line fill="none" stroke="#585859" stroke-width="0.1" stroke-miterlimit="10" x1="104.709" y1="137.653" x2="27.793" y2="60.737"/>
				
					<line fill="none" stroke="#585859" stroke-width="0.1" stroke-miterlimit="10" x1="104.709" y1="141.21" x2="27.793" y2="64.294"/>
			</g>
		</g>
	</g>
	<rect x="42.733" y="64.471" fill="none" stroke="#585859" stroke-miterlimit="10" width="8.325" height="2.959"/>
	<rect x="31.483" y="64.471" fill="none" stroke="#585859" stroke-miterlimit="10" width="8.325" height="2.959"/>
</g>
</svg>
